G04 (created by PCBNEW (2013-04-19 BZR 4011)-stable) date 13/06/2013 21:19:41*
%MOIN*%
G04 Gerber Fmt 3.4, Leading zero omitted, Abs format*
%FSLAX34Y34*%
G01*
G70*
G90*
G04 APERTURE LIST*
%ADD10C,0.006*%
%ADD11C,0.15*%
%ADD12R,0.06X0.06*%
%ADD13C,0.06*%
%ADD14C,0.16*%
%ADD15C,0.055*%
%ADD16C,0.07*%
%ADD17R,0.062X0.09*%
%ADD18O,0.062X0.09*%
%ADD19R,0.09X0.062*%
%ADD20O,0.09X0.062*%
%ADD21O,0.137795X0.189*%
%ADD22O,0.0629921X0.0984252*%
%ADD23O,0.0984252X0.0629921*%
%ADD24C,0.0433071*%
%ADD25C,0.01*%
%ADD26C,0.02*%
%ADD27C,0.015748*%
%ADD28C,0.011811*%
%ADD29C,0.0393701*%
G04 APERTURE END LIST*
G54D10*
G54D11*
X69905Y-36950D03*
X59905Y-36950D03*
G54D12*
X62705Y-37950D03*
G54D13*
X63805Y-37950D03*
X64855Y-37950D03*
X65955Y-37950D03*
X67055Y-37950D03*
X63255Y-36950D03*
X64355Y-36950D03*
X65405Y-36950D03*
X66505Y-36950D03*
G54D12*
X71900Y-36400D03*
G54D13*
X72900Y-36400D03*
X71900Y-37400D03*
X72900Y-37400D03*
X71900Y-38400D03*
X72900Y-38400D03*
X71900Y-39400D03*
X72900Y-39400D03*
X71900Y-40400D03*
X72900Y-40400D03*
X71900Y-41400D03*
X72900Y-41400D03*
X71900Y-42400D03*
X72900Y-42400D03*
X71900Y-43400D03*
X72900Y-43400D03*
X71900Y-44400D03*
X72900Y-44400D03*
X71900Y-45400D03*
X72900Y-45400D03*
X71900Y-46400D03*
X72900Y-46400D03*
X71900Y-47400D03*
X72900Y-47400D03*
X71900Y-48400D03*
X72900Y-48400D03*
G54D14*
X59055Y-45400D03*
G54D15*
X56140Y-39240D03*
X55140Y-39240D03*
X62980Y-43395D03*
X62980Y-44395D03*
X64985Y-49395D03*
X64985Y-48395D03*
X64245Y-47380D03*
X65245Y-47380D03*
X64240Y-43385D03*
X65240Y-43385D03*
X70145Y-48390D03*
X70145Y-49390D03*
X58725Y-39010D03*
X59725Y-39010D03*
G54D12*
X58490Y-49840D03*
G54D13*
X57490Y-49840D03*
G54D12*
X58725Y-40345D03*
G54D13*
X59725Y-40345D03*
G54D16*
X70550Y-44015D03*
X70550Y-42015D03*
G54D17*
X54430Y-48190D03*
G54D18*
X55430Y-48190D03*
X56430Y-48190D03*
X57430Y-48190D03*
X57430Y-45190D03*
X56430Y-45190D03*
X55430Y-45190D03*
X54430Y-45190D03*
G54D17*
X61755Y-41865D03*
G54D18*
X62755Y-41865D03*
X63755Y-41865D03*
X64755Y-41865D03*
X64755Y-38865D03*
X63755Y-38865D03*
X62755Y-38865D03*
X61755Y-38865D03*
G54D19*
X69065Y-49390D03*
G54D20*
X69065Y-48390D03*
X69065Y-47390D03*
X69065Y-46390D03*
X69065Y-45390D03*
X69065Y-44390D03*
X69065Y-43390D03*
X69065Y-42390D03*
X69065Y-41390D03*
X66065Y-41390D03*
X66065Y-42390D03*
X66065Y-43390D03*
X66065Y-44390D03*
X66065Y-45390D03*
X66065Y-46390D03*
X66065Y-47390D03*
X66065Y-48390D03*
X66065Y-49390D03*
G54D15*
X66010Y-50500D03*
X64010Y-50500D03*
X60710Y-40880D03*
X60710Y-38880D03*
X68550Y-39775D03*
X70550Y-39775D03*
X69060Y-38860D03*
X71060Y-38860D03*
G54D12*
X54430Y-49845D03*
G54D13*
X55430Y-49845D03*
G54D21*
X53093Y-41700D03*
X56637Y-41700D03*
X54668Y-41700D03*
G54D22*
X57511Y-31823D03*
X53518Y-31815D03*
G54D23*
X56558Y-32457D03*
X54463Y-32472D03*
X56499Y-31677D03*
X54530Y-31677D03*
G54D24*
X66530Y-39990D03*
X68140Y-35680D03*
X61755Y-46885D03*
G54D25*
X56499Y-31677D02*
X56499Y-32398D01*
X56499Y-32398D02*
X56558Y-32457D01*
G54D26*
X56140Y-39240D02*
X56910Y-39240D01*
X56910Y-39240D02*
X57910Y-40240D01*
X57910Y-40240D02*
X57910Y-40930D01*
X57910Y-40930D02*
X58270Y-41290D01*
X58270Y-41290D02*
X59440Y-41290D01*
X59440Y-41290D02*
X60921Y-42771D01*
X60921Y-42771D02*
X60921Y-47719D01*
X60921Y-47719D02*
X62597Y-49395D01*
X62597Y-49395D02*
X64985Y-49395D01*
G54D27*
X65340Y-42285D02*
X64240Y-43385D01*
X65340Y-41180D02*
X65340Y-42285D01*
X66530Y-39990D02*
X65340Y-41180D01*
G54D25*
X64240Y-43385D02*
X64240Y-43350D01*
G54D27*
X64240Y-43385D02*
X64240Y-47375D01*
G54D28*
X64240Y-47375D02*
X64245Y-47380D01*
G54D26*
X66065Y-49390D02*
X64990Y-49390D01*
G54D28*
X64990Y-49390D02*
X64985Y-49395D01*
G54D27*
X54430Y-45190D02*
X54430Y-44390D01*
X54463Y-39651D02*
X54463Y-34993D01*
X55650Y-40838D02*
X54463Y-39651D01*
X55650Y-43170D02*
X55650Y-40838D01*
X54430Y-44390D02*
X55650Y-43170D01*
G54D28*
X55665Y-35955D02*
X55940Y-35680D01*
G54D29*
X68140Y-35680D02*
X55940Y-35680D01*
X55940Y-35680D02*
X55150Y-35680D01*
X54463Y-34993D02*
X54463Y-32472D01*
X55150Y-35680D02*
X54463Y-34993D01*
X54530Y-32539D02*
X54530Y-31677D01*
G54D25*
X63755Y-41865D02*
X63755Y-41385D01*
X63250Y-40880D02*
X60710Y-40880D01*
X63755Y-41385D02*
X63250Y-40880D01*
X68140Y-35680D02*
X68140Y-35690D01*
G54D29*
X72415Y-35690D02*
X68140Y-35690D01*
X72900Y-36175D02*
X72415Y-35690D01*
X72900Y-36400D02*
X72900Y-36175D01*
G54D25*
X59055Y-45400D02*
X59055Y-45421D01*
X57430Y-47047D02*
X57430Y-47485D01*
X59055Y-45421D02*
X57430Y-47047D01*
G54D28*
X57430Y-48190D02*
X57430Y-47485D01*
X59080Y-45375D02*
X59055Y-45400D01*
G54D25*
X65597Y-50008D02*
X70042Y-50008D01*
X70145Y-49905D02*
X70145Y-49390D01*
X70042Y-50008D02*
X70145Y-49905D01*
X61445Y-49840D02*
X64218Y-49840D01*
G54D28*
X58490Y-49840D02*
X61445Y-49840D01*
G54D25*
X65597Y-50087D02*
X66010Y-50500D01*
X65597Y-50008D02*
X65597Y-50087D01*
X65366Y-50239D02*
X65597Y-50008D01*
X64617Y-50239D02*
X65366Y-50239D01*
X64218Y-49840D02*
X64617Y-50239D01*
X62755Y-41865D02*
X62755Y-42535D01*
X63770Y-48398D02*
X64130Y-48398D01*
X63338Y-47966D02*
X63770Y-48398D01*
X63338Y-47062D02*
X63338Y-47966D01*
X63615Y-46785D02*
X63338Y-47062D01*
X63615Y-44202D02*
X63615Y-46785D01*
X63315Y-43902D02*
X63615Y-44202D01*
X62502Y-43902D02*
X63315Y-43902D01*
X62320Y-43720D02*
X62502Y-43902D01*
X62320Y-42970D02*
X62320Y-43720D01*
X62755Y-42535D02*
X62320Y-42970D01*
X57430Y-48190D02*
X57430Y-47440D01*
X54390Y-46605D02*
X53900Y-46115D01*
X56595Y-46605D02*
X54390Y-46605D01*
X57430Y-47440D02*
X56595Y-46605D01*
X71597Y-38822D02*
X71597Y-38962D01*
X71335Y-44075D02*
X71230Y-44180D01*
X71335Y-39225D02*
X71335Y-44075D01*
X71597Y-38962D02*
X71335Y-39225D01*
X69065Y-41390D02*
X68155Y-41390D01*
X70265Y-42890D02*
X70285Y-42870D01*
X68245Y-42890D02*
X70265Y-42890D01*
X67845Y-42490D02*
X68245Y-42890D01*
X67845Y-41700D02*
X67845Y-42490D01*
X68155Y-41390D02*
X67845Y-41700D01*
X65140Y-45640D02*
X65140Y-46635D01*
X67325Y-46400D02*
X67915Y-46400D01*
X66845Y-46880D02*
X67325Y-46400D01*
X65385Y-46880D02*
X66845Y-46880D01*
X65140Y-46635D02*
X65385Y-46880D01*
X69065Y-41390D02*
X68150Y-41390D01*
X67260Y-45400D02*
X67975Y-45400D01*
X66765Y-45895D02*
X67260Y-45400D01*
X65395Y-45895D02*
X66765Y-45895D01*
X65140Y-45640D02*
X65395Y-45895D01*
X65140Y-45220D02*
X65140Y-45640D01*
X65460Y-44900D02*
X65140Y-45220D01*
X66715Y-44900D02*
X65460Y-44900D01*
X67045Y-44570D02*
X66715Y-44900D01*
X67045Y-44245D02*
X67045Y-44570D01*
X66695Y-43895D02*
X67045Y-44245D01*
X64895Y-43895D02*
X66695Y-43895D01*
X64675Y-43675D02*
X64895Y-43895D01*
X64675Y-43310D02*
X64675Y-43675D01*
X65095Y-42890D02*
X64675Y-43310D01*
X66735Y-42890D02*
X65095Y-42890D01*
X67220Y-42405D02*
X66735Y-42890D01*
X67220Y-42320D02*
X67220Y-42405D01*
X68150Y-41390D02*
X67220Y-42320D01*
X63255Y-36950D02*
X63255Y-36990D01*
X62810Y-39910D02*
X62560Y-39910D01*
X63260Y-39460D02*
X62810Y-39910D01*
X63260Y-37745D02*
X63260Y-39460D01*
X63350Y-37655D02*
X63260Y-37745D01*
X63350Y-37575D02*
X63350Y-37655D01*
X63595Y-37330D02*
X63350Y-37575D01*
X63255Y-36990D02*
X63595Y-37330D01*
X58970Y-41700D02*
X56637Y-41700D01*
X59080Y-41810D02*
X58970Y-41700D01*
G54D27*
X72900Y-38400D02*
X72885Y-38400D01*
X72885Y-38400D02*
X72385Y-38900D01*
X72385Y-38900D02*
X71675Y-38900D01*
X71675Y-38900D02*
X71597Y-38822D01*
X71597Y-38822D02*
X71495Y-38720D01*
X71495Y-38720D02*
X71495Y-38670D01*
X71495Y-38670D02*
X71465Y-38640D01*
X71465Y-38640D02*
X71465Y-38610D01*
X71465Y-38610D02*
X71245Y-38390D01*
X71245Y-38390D02*
X69720Y-38390D01*
X69720Y-38390D02*
X69250Y-38860D01*
X69250Y-38860D02*
X69060Y-38860D01*
G54D28*
X58490Y-49840D02*
X58490Y-49300D01*
X57430Y-48875D02*
X57430Y-48190D01*
X57540Y-48985D02*
X57430Y-48875D01*
X58175Y-48985D02*
X57540Y-48985D01*
X58490Y-49300D02*
X58175Y-48985D01*
X60710Y-38880D02*
X61630Y-37960D01*
X61670Y-37960D02*
X61755Y-37875D01*
X61630Y-37960D02*
X61670Y-37960D01*
X63725Y-36480D02*
X62385Y-36480D01*
X61755Y-37110D02*
X61755Y-37875D01*
X61755Y-37875D02*
X61755Y-38865D01*
X62385Y-36480D02*
X61755Y-37110D01*
X64855Y-37950D02*
X64410Y-37505D01*
X64610Y-37205D02*
X64355Y-36950D01*
X64610Y-37315D02*
X64610Y-37205D01*
X64420Y-37505D02*
X64610Y-37315D01*
X64410Y-37505D02*
X64420Y-37505D01*
X64355Y-36950D02*
X64755Y-36550D01*
X64755Y-36550D02*
X64755Y-36480D01*
X64755Y-36480D02*
X64755Y-36485D01*
X64755Y-36485D02*
X64755Y-36480D01*
X66505Y-36950D02*
X66500Y-36950D01*
X63725Y-36480D02*
X63255Y-36950D01*
X66030Y-36480D02*
X64755Y-36480D01*
X64755Y-36480D02*
X63725Y-36480D01*
X66500Y-36950D02*
X66030Y-36480D01*
X67575Y-37430D02*
X66985Y-37430D01*
X66985Y-37430D02*
X66505Y-36950D01*
X67055Y-37950D02*
X67575Y-37430D01*
X67630Y-37430D02*
X69060Y-38860D01*
X67575Y-37430D02*
X67630Y-37430D01*
X69060Y-38860D02*
X69410Y-39210D01*
X69410Y-39580D02*
X68885Y-40105D01*
X69410Y-39210D02*
X69410Y-39580D01*
X68550Y-39775D02*
X68555Y-39775D01*
X68555Y-39775D02*
X68885Y-40105D01*
X69065Y-40285D02*
X69065Y-41390D01*
X68885Y-40105D02*
X69065Y-40285D01*
X69065Y-38865D02*
X69060Y-38860D01*
X65240Y-43385D02*
X66060Y-43385D01*
X66060Y-43385D02*
X66065Y-43390D01*
X66065Y-43390D02*
X66825Y-43390D01*
X72395Y-45895D02*
X72900Y-46400D01*
X72395Y-45185D02*
X72395Y-45895D01*
X72115Y-44905D02*
X72395Y-45185D01*
X71430Y-44905D02*
X72115Y-44905D01*
X71165Y-44640D02*
X71430Y-44905D01*
X70065Y-44640D02*
X71165Y-44640D01*
X69865Y-44440D02*
X70065Y-44640D01*
X69865Y-44250D02*
X69865Y-44440D01*
X69495Y-43880D02*
X69865Y-44250D01*
X67315Y-43880D02*
X69495Y-43880D01*
X66825Y-43390D02*
X67315Y-43880D01*
X56430Y-48190D02*
X56430Y-48780D01*
X56430Y-48780D02*
X57490Y-49840D01*
X70550Y-42015D02*
X70550Y-39775D01*
X69065Y-42390D02*
X70175Y-42390D01*
X70175Y-42390D02*
X70550Y-42015D01*
X70550Y-44015D02*
X70550Y-43470D01*
X70550Y-43470D02*
X70470Y-43390D01*
X69065Y-43390D02*
X70470Y-43390D01*
X70470Y-43390D02*
X70910Y-43390D01*
X71060Y-43240D02*
X71060Y-38860D01*
X70910Y-43390D02*
X71060Y-43240D01*
X61755Y-46885D02*
X61755Y-41865D01*
X54430Y-48190D02*
X54430Y-49845D01*
X62980Y-44395D02*
X62980Y-48275D01*
X67905Y-48890D02*
X68405Y-48390D01*
X68405Y-48390D02*
X69065Y-48390D01*
X63595Y-48890D02*
X67905Y-48890D01*
X62980Y-48275D02*
X63595Y-48890D01*
X70145Y-48390D02*
X69065Y-48390D01*
G54D27*
X58725Y-39010D02*
X58725Y-40345D01*
G54D28*
X64755Y-41865D02*
X64755Y-42145D01*
X63405Y-42970D02*
X62980Y-43395D01*
X63930Y-42970D02*
X63405Y-42970D01*
X64755Y-42145D02*
X63930Y-42970D01*
X66065Y-48390D02*
X64990Y-48390D01*
X64990Y-48390D02*
X64985Y-48395D01*
X59725Y-40345D02*
X62965Y-40345D01*
X63755Y-39555D02*
X63755Y-38865D01*
X62965Y-40345D02*
X63755Y-39555D01*
G54D27*
X63805Y-37950D02*
X63805Y-38815D01*
G54D28*
X63805Y-38815D02*
X63755Y-38865D01*
X59725Y-39010D02*
X59725Y-39015D01*
X62755Y-39305D02*
X62755Y-38865D01*
X62565Y-39495D02*
X62755Y-39305D01*
X60205Y-39495D02*
X62565Y-39495D01*
X59725Y-39015D02*
X60205Y-39495D01*
G54D27*
X62705Y-37950D02*
X62705Y-38815D01*
G54D28*
X62705Y-38815D02*
X62755Y-38865D01*
X55430Y-48190D02*
X55430Y-49845D01*
X66065Y-47390D02*
X65255Y-47390D01*
X65255Y-47390D02*
X65245Y-47380D01*
X66065Y-47390D02*
X66850Y-47390D01*
X72390Y-46890D02*
X72900Y-47400D01*
X67350Y-46890D02*
X72390Y-46890D01*
X66850Y-47390D02*
X67350Y-46890D01*
X66065Y-46390D02*
X66790Y-46390D01*
X71405Y-46400D02*
X71900Y-46400D01*
X70900Y-45895D02*
X71405Y-46400D01*
X67285Y-45895D02*
X70900Y-45895D01*
X66790Y-46390D02*
X67285Y-45895D01*
X66065Y-45390D02*
X66740Y-45390D01*
X71410Y-45400D02*
X71900Y-45400D01*
X70900Y-44890D02*
X71410Y-45400D01*
X67240Y-44890D02*
X70900Y-44890D01*
X66740Y-45390D02*
X67240Y-44890D01*
X66065Y-44390D02*
X65445Y-44390D01*
X70070Y-47400D02*
X71900Y-47400D01*
X69575Y-47895D02*
X70070Y-47400D01*
X65000Y-47895D02*
X69575Y-47895D01*
X64735Y-47630D02*
X65000Y-47895D01*
X64735Y-45100D02*
X64735Y-47630D01*
X65445Y-44390D02*
X64735Y-45100D01*
G54D10*
G36*
X54868Y-40521D02*
X54668Y-40481D01*
X54309Y-40553D01*
X54004Y-40756D01*
X53881Y-40941D01*
X53757Y-40756D01*
X53468Y-40563D01*
X53468Y-32492D01*
X53468Y-31865D01*
X52953Y-31865D01*
X52953Y-32042D01*
X53016Y-32254D01*
X53154Y-32427D01*
X53348Y-32533D01*
X53381Y-32540D01*
X53468Y-32492D01*
X53468Y-40563D01*
X53453Y-40553D01*
X53093Y-40481D01*
X52734Y-40553D01*
X52429Y-40756D01*
X52307Y-40939D01*
X52309Y-31375D01*
X53016Y-31375D01*
X53016Y-31375D01*
X52953Y-31588D01*
X52953Y-31765D01*
X53468Y-31765D01*
X53468Y-31757D01*
X53568Y-31757D01*
X53568Y-31765D01*
X53576Y-31765D01*
X53576Y-31865D01*
X53568Y-31865D01*
X53568Y-32492D01*
X53656Y-32540D01*
X53688Y-32533D01*
X53716Y-32518D01*
X53725Y-32562D01*
X53725Y-33375D01*
X54016Y-33375D01*
X54016Y-34993D01*
X54050Y-35164D01*
X54135Y-35290D01*
X54135Y-39651D01*
X54160Y-39777D01*
X54231Y-39884D01*
X54868Y-40521D01*
X54868Y-40521D01*
G37*
G54D25*
X54868Y-40521D02*
X54668Y-40481D01*
X54309Y-40553D01*
X54004Y-40756D01*
X53881Y-40941D01*
X53757Y-40756D01*
X53468Y-40563D01*
X53468Y-32492D01*
X53468Y-31865D01*
X52953Y-31865D01*
X52953Y-32042D01*
X53016Y-32254D01*
X53154Y-32427D01*
X53348Y-32533D01*
X53381Y-32540D01*
X53468Y-32492D01*
X53468Y-40563D01*
X53453Y-40553D01*
X53093Y-40481D01*
X52734Y-40553D01*
X52429Y-40756D01*
X52307Y-40939D01*
X52309Y-31375D01*
X53016Y-31375D01*
X53016Y-31375D01*
X52953Y-31588D01*
X52953Y-31765D01*
X53468Y-31765D01*
X53468Y-31757D01*
X53568Y-31757D01*
X53568Y-31765D01*
X53576Y-31765D01*
X53576Y-31865D01*
X53568Y-31865D01*
X53568Y-32492D01*
X53656Y-32540D01*
X53688Y-32533D01*
X53716Y-32518D01*
X53725Y-32562D01*
X53725Y-33375D01*
X54016Y-33375D01*
X54016Y-34993D01*
X54050Y-35164D01*
X54135Y-35290D01*
X54135Y-39651D01*
X54160Y-39777D01*
X54231Y-39884D01*
X54868Y-40521D01*
G54D10*
G36*
X63418Y-39454D02*
X62836Y-40035D01*
X60192Y-40035D01*
X60191Y-40033D01*
X60036Y-39879D01*
X59834Y-39795D01*
X59616Y-39794D01*
X59413Y-39878D01*
X59275Y-40017D01*
X59275Y-39995D01*
X59237Y-39903D01*
X59166Y-39833D01*
X59074Y-39795D01*
X59053Y-39795D01*
X59053Y-39423D01*
X59169Y-39307D01*
X59225Y-39174D01*
X59279Y-39307D01*
X59427Y-39454D01*
X59620Y-39534D01*
X59808Y-39535D01*
X59986Y-39713D01*
X60086Y-39780D01*
X60086Y-39780D01*
X60205Y-39804D01*
X62565Y-39804D01*
X62683Y-39780D01*
X62683Y-39780D01*
X62783Y-39713D01*
X62958Y-39538D01*
X62969Y-39536D01*
X63150Y-39414D01*
X63255Y-39259D01*
X63359Y-39414D01*
X63418Y-39454D01*
X63418Y-39454D01*
G37*
G54D25*
X63418Y-39454D02*
X62836Y-40035D01*
X60192Y-40035D01*
X60191Y-40033D01*
X60036Y-39879D01*
X59834Y-39795D01*
X59616Y-39794D01*
X59413Y-39878D01*
X59275Y-40017D01*
X59275Y-39995D01*
X59237Y-39903D01*
X59166Y-39833D01*
X59074Y-39795D01*
X59053Y-39795D01*
X59053Y-39423D01*
X59169Y-39307D01*
X59225Y-39174D01*
X59279Y-39307D01*
X59427Y-39454D01*
X59620Y-39534D01*
X59808Y-39535D01*
X59986Y-39713D01*
X60086Y-39780D01*
X60086Y-39780D01*
X60205Y-39804D01*
X62565Y-39804D01*
X62683Y-39780D01*
X62683Y-39780D01*
X62783Y-39713D01*
X62958Y-39538D01*
X62969Y-39536D01*
X63150Y-39414D01*
X63255Y-39259D01*
X63359Y-39414D01*
X63418Y-39454D01*
G54D10*
G36*
X63916Y-42546D02*
X63801Y-42660D01*
X63405Y-42660D01*
X63286Y-42684D01*
X63186Y-42751D01*
X63186Y-42751D01*
X63067Y-42870D01*
X62876Y-42869D01*
X62683Y-42949D01*
X62535Y-43097D01*
X62455Y-43290D01*
X62454Y-43498D01*
X62534Y-43692D01*
X62682Y-43839D01*
X62815Y-43895D01*
X62683Y-43949D01*
X62535Y-44097D01*
X62455Y-44290D01*
X62454Y-44498D01*
X62534Y-44692D01*
X62670Y-44828D01*
X62670Y-48275D01*
X62694Y-48393D01*
X62761Y-48493D01*
X63312Y-49045D01*
X62741Y-49045D01*
X61271Y-47574D01*
X61271Y-42771D01*
X61270Y-42770D01*
X61271Y-42770D01*
X61244Y-42637D01*
X61168Y-42523D01*
X61168Y-42523D01*
X59687Y-41042D01*
X59573Y-40966D01*
X59440Y-40940D01*
X58414Y-40940D01*
X58366Y-40891D01*
X58375Y-40894D01*
X58474Y-40895D01*
X59074Y-40895D01*
X59166Y-40857D01*
X59236Y-40786D01*
X59274Y-40694D01*
X59274Y-40672D01*
X59413Y-40810D01*
X59615Y-40894D01*
X59833Y-40895D01*
X60036Y-40811D01*
X60190Y-40656D01*
X60192Y-40654D01*
X60235Y-40654D01*
X60185Y-40775D01*
X60184Y-40983D01*
X60264Y-41177D01*
X60412Y-41324D01*
X60605Y-41404D01*
X60813Y-41405D01*
X61007Y-41325D01*
X61152Y-41180D01*
X61359Y-41180D01*
X61303Y-41202D01*
X61233Y-41273D01*
X61195Y-41365D01*
X61194Y-41464D01*
X61194Y-42364D01*
X61232Y-42456D01*
X61303Y-42526D01*
X61395Y-42564D01*
X61445Y-42565D01*
X61445Y-46534D01*
X61359Y-46620D01*
X61288Y-46791D01*
X61288Y-46977D01*
X61359Y-47148D01*
X61490Y-47280D01*
X61661Y-47351D01*
X61847Y-47351D01*
X62018Y-47280D01*
X62150Y-47149D01*
X62221Y-46978D01*
X62221Y-46792D01*
X62150Y-46621D01*
X62064Y-46534D01*
X62064Y-42565D01*
X62114Y-42565D01*
X62206Y-42527D01*
X62276Y-42456D01*
X62314Y-42364D01*
X62314Y-42337D01*
X62394Y-42436D01*
X62586Y-42541D01*
X62618Y-42548D01*
X62705Y-42499D01*
X62705Y-41915D01*
X62697Y-41915D01*
X62697Y-41815D01*
X62705Y-41815D01*
X62705Y-41807D01*
X62805Y-41807D01*
X62805Y-41815D01*
X62812Y-41815D01*
X62812Y-41915D01*
X62805Y-41915D01*
X62805Y-42499D01*
X62891Y-42548D01*
X62923Y-42541D01*
X63115Y-42436D01*
X63253Y-42265D01*
X63255Y-42259D01*
X63359Y-42414D01*
X63540Y-42536D01*
X63755Y-42578D01*
X63916Y-42546D01*
X63916Y-42546D01*
G37*
G54D25*
X63916Y-42546D02*
X63801Y-42660D01*
X63405Y-42660D01*
X63286Y-42684D01*
X63186Y-42751D01*
X63186Y-42751D01*
X63067Y-42870D01*
X62876Y-42869D01*
X62683Y-42949D01*
X62535Y-43097D01*
X62455Y-43290D01*
X62454Y-43498D01*
X62534Y-43692D01*
X62682Y-43839D01*
X62815Y-43895D01*
X62683Y-43949D01*
X62535Y-44097D01*
X62455Y-44290D01*
X62454Y-44498D01*
X62534Y-44692D01*
X62670Y-44828D01*
X62670Y-48275D01*
X62694Y-48393D01*
X62761Y-48493D01*
X63312Y-49045D01*
X62741Y-49045D01*
X61271Y-47574D01*
X61271Y-42771D01*
X61270Y-42770D01*
X61271Y-42770D01*
X61244Y-42637D01*
X61168Y-42523D01*
X61168Y-42523D01*
X59687Y-41042D01*
X59573Y-40966D01*
X59440Y-40940D01*
X58414Y-40940D01*
X58366Y-40891D01*
X58375Y-40894D01*
X58474Y-40895D01*
X59074Y-40895D01*
X59166Y-40857D01*
X59236Y-40786D01*
X59274Y-40694D01*
X59274Y-40672D01*
X59413Y-40810D01*
X59615Y-40894D01*
X59833Y-40895D01*
X60036Y-40811D01*
X60190Y-40656D01*
X60192Y-40654D01*
X60235Y-40654D01*
X60185Y-40775D01*
X60184Y-40983D01*
X60264Y-41177D01*
X60412Y-41324D01*
X60605Y-41404D01*
X60813Y-41405D01*
X61007Y-41325D01*
X61152Y-41180D01*
X61359Y-41180D01*
X61303Y-41202D01*
X61233Y-41273D01*
X61195Y-41365D01*
X61194Y-41464D01*
X61194Y-42364D01*
X61232Y-42456D01*
X61303Y-42526D01*
X61395Y-42564D01*
X61445Y-42565D01*
X61445Y-46534D01*
X61359Y-46620D01*
X61288Y-46791D01*
X61288Y-46977D01*
X61359Y-47148D01*
X61490Y-47280D01*
X61661Y-47351D01*
X61847Y-47351D01*
X62018Y-47280D01*
X62150Y-47149D01*
X62221Y-46978D01*
X62221Y-46792D01*
X62150Y-46621D01*
X62064Y-46534D01*
X62064Y-42565D01*
X62114Y-42565D01*
X62206Y-42527D01*
X62276Y-42456D01*
X62314Y-42364D01*
X62314Y-42337D01*
X62394Y-42436D01*
X62586Y-42541D01*
X62618Y-42548D01*
X62705Y-42499D01*
X62705Y-41915D01*
X62697Y-41915D01*
X62697Y-41815D01*
X62705Y-41815D01*
X62705Y-41807D01*
X62805Y-41807D01*
X62805Y-41815D01*
X62812Y-41815D01*
X62812Y-41915D01*
X62805Y-41915D01*
X62805Y-42499D01*
X62891Y-42548D01*
X62923Y-42541D01*
X63115Y-42436D01*
X63253Y-42265D01*
X63255Y-42259D01*
X63359Y-42414D01*
X63540Y-42536D01*
X63755Y-42578D01*
X63916Y-42546D01*
G54D10*
G36*
X64652Y-47984D02*
X64540Y-48097D01*
X64460Y-48290D01*
X64459Y-48498D01*
X64493Y-48580D01*
X63723Y-48580D01*
X63289Y-48146D01*
X63289Y-44828D01*
X63424Y-44692D01*
X63504Y-44499D01*
X63505Y-44291D01*
X63425Y-44098D01*
X63277Y-43950D01*
X63144Y-43894D01*
X63277Y-43840D01*
X63424Y-43692D01*
X63504Y-43499D01*
X63505Y-43306D01*
X63533Y-43279D01*
X63715Y-43279D01*
X63715Y-43280D01*
X63714Y-43488D01*
X63794Y-43682D01*
X63911Y-43798D01*
X63911Y-46971D01*
X63800Y-47082D01*
X63720Y-47275D01*
X63719Y-47483D01*
X63799Y-47677D01*
X63947Y-47824D01*
X64140Y-47904D01*
X64348Y-47905D01*
X64509Y-47838D01*
X64516Y-47848D01*
X64652Y-47984D01*
X64652Y-47984D01*
G37*
G54D25*
X64652Y-47984D02*
X64540Y-48097D01*
X64460Y-48290D01*
X64459Y-48498D01*
X64493Y-48580D01*
X63723Y-48580D01*
X63289Y-48146D01*
X63289Y-44828D01*
X63424Y-44692D01*
X63504Y-44499D01*
X63505Y-44291D01*
X63425Y-44098D01*
X63277Y-43950D01*
X63144Y-43894D01*
X63277Y-43840D01*
X63424Y-43692D01*
X63504Y-43499D01*
X63505Y-43306D01*
X63533Y-43279D01*
X63715Y-43279D01*
X63715Y-43280D01*
X63714Y-43488D01*
X63794Y-43682D01*
X63911Y-43798D01*
X63911Y-46971D01*
X63800Y-47082D01*
X63720Y-47275D01*
X63719Y-47483D01*
X63799Y-47677D01*
X63947Y-47824D01*
X64140Y-47904D01*
X64348Y-47905D01*
X64509Y-47838D01*
X64516Y-47848D01*
X64652Y-47984D01*
G54D10*
G36*
X65670Y-43890D02*
X65515Y-43994D01*
X65457Y-44080D01*
X65445Y-44080D01*
X65444Y-44080D01*
X65421Y-44085D01*
X65326Y-44104D01*
X65226Y-44171D01*
X65226Y-44171D01*
X64568Y-44829D01*
X64568Y-43798D01*
X64684Y-43682D01*
X64740Y-43549D01*
X64794Y-43682D01*
X64942Y-43829D01*
X65135Y-43909D01*
X65343Y-43910D01*
X65537Y-43830D01*
X65554Y-43812D01*
X65670Y-43890D01*
X65670Y-43890D01*
G37*
G54D25*
X65670Y-43890D02*
X65515Y-43994D01*
X65457Y-44080D01*
X65445Y-44080D01*
X65444Y-44080D01*
X65421Y-44085D01*
X65326Y-44104D01*
X65226Y-44171D01*
X65226Y-44171D01*
X64568Y-44829D01*
X64568Y-43798D01*
X64684Y-43682D01*
X64740Y-43549D01*
X64794Y-43682D01*
X64942Y-43829D01*
X65135Y-43909D01*
X65343Y-43910D01*
X65537Y-43830D01*
X65554Y-43812D01*
X65670Y-43890D01*
G54D10*
G36*
X65670Y-46890D02*
X65567Y-46959D01*
X65542Y-46935D01*
X65349Y-46855D01*
X65141Y-46854D01*
X65044Y-46894D01*
X65044Y-45228D01*
X65503Y-44768D01*
X65515Y-44785D01*
X65670Y-44890D01*
X65515Y-44994D01*
X65393Y-45175D01*
X65351Y-45390D01*
X65393Y-45604D01*
X65515Y-45785D01*
X65670Y-45890D01*
X65515Y-45994D01*
X65393Y-46175D01*
X65351Y-46390D01*
X65393Y-46604D01*
X65515Y-46785D01*
X65670Y-46890D01*
X65670Y-46890D01*
G37*
G54D25*
X65670Y-46890D02*
X65567Y-46959D01*
X65542Y-46935D01*
X65349Y-46855D01*
X65141Y-46854D01*
X65044Y-46894D01*
X65044Y-45228D01*
X65503Y-44768D01*
X65515Y-44785D01*
X65670Y-44890D01*
X65515Y-44994D01*
X65393Y-45175D01*
X65351Y-45390D01*
X65393Y-45604D01*
X65515Y-45785D01*
X65670Y-45890D01*
X65515Y-45994D01*
X65393Y-46175D01*
X65351Y-46390D01*
X65393Y-46604D01*
X65515Y-46785D01*
X65670Y-46890D01*
G54D10*
G36*
X68389Y-46580D02*
X67350Y-46580D01*
X67231Y-46604D01*
X67131Y-46671D01*
X66721Y-47080D01*
X66672Y-47080D01*
X66614Y-46994D01*
X66459Y-46890D01*
X66614Y-46785D01*
X66672Y-46699D01*
X66790Y-46699D01*
X66908Y-46675D01*
X66908Y-46675D01*
X67008Y-46608D01*
X67413Y-46204D01*
X68388Y-46204D01*
X68351Y-46390D01*
X68389Y-46580D01*
X68389Y-46580D01*
G37*
G54D25*
X68389Y-46580D02*
X67350Y-46580D01*
X67231Y-46604D01*
X67131Y-46671D01*
X66721Y-47080D01*
X66672Y-47080D01*
X66614Y-46994D01*
X66459Y-46890D01*
X66614Y-46785D01*
X66672Y-46699D01*
X66790Y-46699D01*
X66908Y-46675D01*
X66908Y-46675D01*
X67008Y-46608D01*
X67413Y-46204D01*
X68388Y-46204D01*
X68351Y-46390D01*
X68389Y-46580D01*
G54D10*
G36*
X68390Y-45585D02*
X67285Y-45585D01*
X67284Y-45585D01*
X67261Y-45590D01*
X67166Y-45609D01*
X67066Y-45676D01*
X67066Y-45676D01*
X66668Y-46074D01*
X66614Y-45994D01*
X66459Y-45890D01*
X66614Y-45785D01*
X66672Y-45699D01*
X66740Y-45699D01*
X66858Y-45675D01*
X66858Y-45675D01*
X66958Y-45608D01*
X67368Y-45199D01*
X68389Y-45199D01*
X68351Y-45390D01*
X68390Y-45585D01*
X68390Y-45585D01*
G37*
G54D25*
X68390Y-45585D02*
X67285Y-45585D01*
X67284Y-45585D01*
X67261Y-45590D01*
X67166Y-45609D01*
X67066Y-45676D01*
X67066Y-45676D01*
X66668Y-46074D01*
X66614Y-45994D01*
X66459Y-45890D01*
X66614Y-45785D01*
X66672Y-45699D01*
X66740Y-45699D01*
X66858Y-45675D01*
X66858Y-45675D01*
X66958Y-45608D01*
X67368Y-45199D01*
X68389Y-45199D01*
X68351Y-45390D01*
X68390Y-45585D01*
G54D10*
G36*
X68391Y-44189D02*
X68351Y-44390D01*
X68389Y-44580D01*
X67240Y-44580D01*
X67121Y-44604D01*
X67021Y-44671D01*
X66648Y-45044D01*
X66614Y-44994D01*
X66459Y-44890D01*
X66614Y-44785D01*
X66736Y-44604D01*
X66778Y-44390D01*
X66736Y-44175D01*
X66614Y-43994D01*
X66459Y-43890D01*
X66614Y-43785D01*
X66672Y-43699D01*
X66696Y-43699D01*
X67096Y-44098D01*
X67196Y-44165D01*
X67196Y-44165D01*
X67315Y-44189D01*
X68391Y-44189D01*
X68391Y-44189D01*
G37*
G54D25*
X68391Y-44189D02*
X68351Y-44390D01*
X68389Y-44580D01*
X67240Y-44580D01*
X67121Y-44604D01*
X67021Y-44671D01*
X66648Y-45044D01*
X66614Y-44994D01*
X66459Y-44890D01*
X66614Y-44785D01*
X66736Y-44604D01*
X66778Y-44390D01*
X66736Y-44175D01*
X66614Y-43994D01*
X66459Y-43890D01*
X66614Y-43785D01*
X66672Y-43699D01*
X66696Y-43699D01*
X67096Y-44098D01*
X67196Y-44165D01*
X67196Y-44165D01*
X67315Y-44189D01*
X68391Y-44189D01*
G54D10*
G36*
X70750Y-43080D02*
X70470Y-43080D01*
X69672Y-43080D01*
X69614Y-42994D01*
X69459Y-42890D01*
X69614Y-42785D01*
X69672Y-42699D01*
X70175Y-42699D01*
X70293Y-42675D01*
X70293Y-42675D01*
X70393Y-42608D01*
X70399Y-42602D01*
X70430Y-42614D01*
X70668Y-42615D01*
X70750Y-42581D01*
X70750Y-43080D01*
X70750Y-43080D01*
G37*
G54D25*
X70750Y-43080D02*
X70470Y-43080D01*
X69672Y-43080D01*
X69614Y-42994D01*
X69459Y-42890D01*
X69614Y-42785D01*
X69672Y-42699D01*
X70175Y-42699D01*
X70293Y-42675D01*
X70293Y-42675D01*
X70393Y-42608D01*
X70399Y-42602D01*
X70430Y-42614D01*
X70668Y-42615D01*
X70750Y-42581D01*
X70750Y-43080D01*
G54D10*
G36*
X71669Y-37899D02*
X71588Y-37933D01*
X71434Y-38088D01*
X71350Y-38290D01*
X71349Y-38411D01*
X71164Y-38335D01*
X70956Y-38334D01*
X70906Y-38355D01*
X70906Y-37139D01*
X70903Y-36741D01*
X70758Y-36391D01*
X70616Y-36309D01*
X69975Y-36950D01*
X70616Y-37590D01*
X70758Y-37508D01*
X70906Y-37139D01*
X70906Y-38355D01*
X70763Y-38414D01*
X70615Y-38562D01*
X70545Y-38730D01*
X70545Y-37661D01*
X69905Y-37020D01*
X69834Y-37091D01*
X69834Y-36950D01*
X69193Y-36309D01*
X69051Y-36391D01*
X68903Y-36760D01*
X68906Y-37158D01*
X69051Y-37508D01*
X69193Y-37590D01*
X69834Y-36950D01*
X69834Y-37091D01*
X69264Y-37661D01*
X69346Y-37803D01*
X69715Y-37951D01*
X70113Y-37948D01*
X70463Y-37803D01*
X70545Y-37661D01*
X70545Y-38730D01*
X70535Y-38755D01*
X70534Y-38963D01*
X70614Y-39157D01*
X70744Y-39287D01*
X70654Y-39250D01*
X70446Y-39249D01*
X70253Y-39329D01*
X70105Y-39477D01*
X70025Y-39670D01*
X70024Y-39878D01*
X70104Y-40072D01*
X70240Y-40208D01*
X70240Y-41493D01*
X70210Y-41506D01*
X70041Y-41674D01*
X69950Y-41895D01*
X69949Y-42080D01*
X69672Y-42080D01*
X69614Y-41994D01*
X69459Y-41890D01*
X69465Y-41888D01*
X69636Y-41750D01*
X69741Y-41558D01*
X69748Y-41526D01*
X69748Y-41253D01*
X69741Y-41221D01*
X69636Y-41029D01*
X69589Y-40991D01*
X69589Y-38935D01*
X69578Y-38727D01*
X69520Y-38587D01*
X69427Y-38562D01*
X69357Y-38633D01*
X69357Y-38492D01*
X69332Y-38399D01*
X69135Y-38330D01*
X68927Y-38341D01*
X68787Y-38399D01*
X68762Y-38492D01*
X69060Y-38789D01*
X69357Y-38492D01*
X69357Y-38633D01*
X69130Y-38860D01*
X69427Y-39157D01*
X69520Y-39132D01*
X69589Y-38935D01*
X69589Y-40991D01*
X69465Y-40891D01*
X69357Y-40859D01*
X69357Y-39227D01*
X69060Y-38930D01*
X68989Y-39001D01*
X68989Y-38860D01*
X68692Y-38562D01*
X68599Y-38587D01*
X68530Y-38784D01*
X68541Y-38992D01*
X68599Y-39132D01*
X68692Y-39157D01*
X68989Y-38860D01*
X68989Y-39001D01*
X68762Y-39227D01*
X68781Y-39300D01*
X68625Y-39245D01*
X68417Y-39256D01*
X68277Y-39314D01*
X68252Y-39407D01*
X68550Y-39704D01*
X68847Y-39407D01*
X68828Y-39334D01*
X68984Y-39389D01*
X69192Y-39378D01*
X69332Y-39320D01*
X69357Y-39227D01*
X69357Y-40859D01*
X69255Y-40830D01*
X69115Y-40830D01*
X69115Y-41340D01*
X69699Y-41340D01*
X69748Y-41253D01*
X69748Y-41526D01*
X69699Y-41440D01*
X69115Y-41440D01*
X69115Y-41447D01*
X69079Y-41447D01*
X69079Y-39850D01*
X69068Y-39642D01*
X69010Y-39502D01*
X68917Y-39477D01*
X68620Y-39775D01*
X68917Y-40072D01*
X69010Y-40047D01*
X69079Y-39850D01*
X69079Y-41447D01*
X69015Y-41447D01*
X69015Y-41440D01*
X69015Y-41340D01*
X69015Y-40830D01*
X68875Y-40830D01*
X68847Y-40838D01*
X68847Y-40142D01*
X68550Y-39845D01*
X68479Y-39916D01*
X68479Y-39775D01*
X68182Y-39477D01*
X68089Y-39502D01*
X68020Y-39699D01*
X68031Y-39907D01*
X68089Y-40047D01*
X68182Y-40072D01*
X68479Y-39775D01*
X68479Y-39916D01*
X68252Y-40142D01*
X68277Y-40235D01*
X68474Y-40304D01*
X68682Y-40293D01*
X68822Y-40235D01*
X68847Y-40142D01*
X68847Y-40838D01*
X68664Y-40891D01*
X68493Y-41029D01*
X68388Y-41221D01*
X68381Y-41253D01*
X68430Y-41340D01*
X69015Y-41340D01*
X69015Y-41440D01*
X68430Y-41440D01*
X68381Y-41526D01*
X68388Y-41558D01*
X68493Y-41750D01*
X68664Y-41888D01*
X68670Y-41890D01*
X68515Y-41994D01*
X68393Y-42175D01*
X68351Y-42390D01*
X68393Y-42604D01*
X68515Y-42785D01*
X68670Y-42890D01*
X68515Y-42994D01*
X68393Y-43175D01*
X68351Y-43390D01*
X68387Y-43570D01*
X67609Y-43570D01*
X67609Y-38031D01*
X67598Y-37813D01*
X67536Y-37662D01*
X67440Y-37634D01*
X67370Y-37705D01*
X67370Y-37564D01*
X67342Y-37468D01*
X67136Y-37395D01*
X67059Y-37399D01*
X67059Y-37031D01*
X67048Y-36813D01*
X66986Y-36662D01*
X66890Y-36634D01*
X66820Y-36705D01*
X66820Y-36564D01*
X66792Y-36468D01*
X66586Y-36395D01*
X66368Y-36406D01*
X66217Y-36468D01*
X66189Y-36564D01*
X66505Y-36879D01*
X66820Y-36564D01*
X66820Y-36705D01*
X66575Y-36950D01*
X66890Y-37265D01*
X66986Y-37237D01*
X67059Y-37031D01*
X67059Y-37399D01*
X66918Y-37406D01*
X66820Y-37446D01*
X66820Y-37335D01*
X66505Y-37020D01*
X66434Y-37091D01*
X66434Y-36950D01*
X66119Y-36634D01*
X66023Y-36662D01*
X65955Y-36854D01*
X65955Y-36841D01*
X65871Y-36638D01*
X65716Y-36484D01*
X65514Y-36400D01*
X65296Y-36399D01*
X65093Y-36483D01*
X64939Y-36638D01*
X64882Y-36773D01*
X64836Y-36662D01*
X64740Y-36634D01*
X64670Y-36705D01*
X64670Y-36564D01*
X64642Y-36468D01*
X64436Y-36395D01*
X64218Y-36406D01*
X64067Y-36468D01*
X64039Y-36564D01*
X64355Y-36879D01*
X64670Y-36564D01*
X64670Y-36705D01*
X64425Y-36950D01*
X64740Y-37265D01*
X64836Y-37237D01*
X64879Y-37117D01*
X64938Y-37261D01*
X65093Y-37415D01*
X65295Y-37499D01*
X65513Y-37500D01*
X65716Y-37416D01*
X65870Y-37261D01*
X65954Y-37059D01*
X65954Y-36963D01*
X65961Y-37086D01*
X66023Y-37237D01*
X66119Y-37265D01*
X66434Y-36950D01*
X66434Y-37091D01*
X66189Y-37335D01*
X66217Y-37431D01*
X66423Y-37504D01*
X66641Y-37493D01*
X66792Y-37431D01*
X66820Y-37335D01*
X66820Y-37446D01*
X66767Y-37468D01*
X66739Y-37564D01*
X67055Y-37879D01*
X67370Y-37564D01*
X67370Y-37705D01*
X67125Y-37950D01*
X67440Y-38265D01*
X67536Y-38237D01*
X67609Y-38031D01*
X67609Y-43570D01*
X67443Y-43570D01*
X67370Y-43498D01*
X67370Y-38335D01*
X67055Y-38020D01*
X66984Y-38091D01*
X66984Y-37950D01*
X66669Y-37634D01*
X66573Y-37662D01*
X66505Y-37854D01*
X66505Y-37841D01*
X66421Y-37638D01*
X66266Y-37484D01*
X66064Y-37400D01*
X65846Y-37399D01*
X65643Y-37483D01*
X65489Y-37638D01*
X65405Y-37840D01*
X65405Y-37936D01*
X65398Y-37813D01*
X65336Y-37662D01*
X65240Y-37634D01*
X65170Y-37705D01*
X65170Y-37564D01*
X65142Y-37468D01*
X64936Y-37395D01*
X64718Y-37406D01*
X64670Y-37426D01*
X64670Y-37335D01*
X64355Y-37020D01*
X64284Y-37091D01*
X64284Y-36950D01*
X63969Y-36634D01*
X63873Y-36662D01*
X63801Y-36864D01*
X63798Y-36813D01*
X63736Y-36662D01*
X63640Y-36634D01*
X63570Y-36705D01*
X63570Y-36564D01*
X63542Y-36468D01*
X63336Y-36395D01*
X63118Y-36406D01*
X62967Y-36468D01*
X62939Y-36564D01*
X63255Y-36879D01*
X63570Y-36564D01*
X63570Y-36705D01*
X63325Y-36950D01*
X63640Y-37265D01*
X63736Y-37237D01*
X63808Y-37035D01*
X63811Y-37086D01*
X63873Y-37237D01*
X63969Y-37265D01*
X64284Y-36950D01*
X64284Y-37091D01*
X64039Y-37335D01*
X64067Y-37431D01*
X64273Y-37504D01*
X64491Y-37493D01*
X64642Y-37431D01*
X64670Y-37335D01*
X64670Y-37426D01*
X64567Y-37468D01*
X64539Y-37564D01*
X64855Y-37879D01*
X65170Y-37564D01*
X65170Y-37705D01*
X64925Y-37950D01*
X65240Y-38265D01*
X65336Y-38237D01*
X65404Y-38045D01*
X65404Y-38058D01*
X65488Y-38261D01*
X65643Y-38415D01*
X65845Y-38499D01*
X66063Y-38500D01*
X66266Y-38416D01*
X66420Y-38261D01*
X66504Y-38059D01*
X66504Y-37963D01*
X66511Y-38086D01*
X66573Y-38237D01*
X66669Y-38265D01*
X66984Y-37950D01*
X66984Y-38091D01*
X66739Y-38335D01*
X66767Y-38431D01*
X66973Y-38504D01*
X67191Y-38493D01*
X67342Y-38431D01*
X67370Y-38335D01*
X67370Y-43498D01*
X67043Y-43171D01*
X66943Y-43104D01*
X66825Y-43080D01*
X66672Y-43080D01*
X66614Y-42994D01*
X66459Y-42890D01*
X66614Y-42785D01*
X66736Y-42604D01*
X66778Y-42390D01*
X66736Y-42175D01*
X66614Y-41994D01*
X66459Y-41890D01*
X66614Y-41785D01*
X66736Y-41604D01*
X66778Y-41390D01*
X66736Y-41175D01*
X66614Y-40994D01*
X66433Y-40872D01*
X66218Y-40830D01*
X66154Y-40830D01*
X66528Y-40456D01*
X66622Y-40456D01*
X66793Y-40385D01*
X66925Y-40254D01*
X66996Y-40083D01*
X66996Y-39897D01*
X66925Y-39726D01*
X66794Y-39594D01*
X66623Y-39523D01*
X66437Y-39523D01*
X66266Y-39594D01*
X66134Y-39725D01*
X66063Y-39896D01*
X66063Y-39991D01*
X65107Y-40947D01*
X65036Y-41054D01*
X65011Y-41180D01*
X65011Y-41221D01*
X64969Y-41193D01*
X64755Y-41151D01*
X64540Y-41193D01*
X64359Y-41315D01*
X64255Y-41470D01*
X64150Y-41315D01*
X63990Y-41208D01*
X63990Y-41208D01*
X63967Y-41172D01*
X63967Y-41172D01*
X63462Y-40667D01*
X63364Y-40602D01*
X63250Y-40580D01*
X63158Y-40580D01*
X63183Y-40563D01*
X63973Y-39773D01*
X63973Y-39773D01*
X63973Y-39773D01*
X64040Y-39673D01*
X64040Y-39673D01*
X64059Y-39578D01*
X64064Y-39555D01*
X64064Y-39555D01*
X64064Y-39555D01*
X64064Y-39472D01*
X64150Y-39414D01*
X64255Y-39259D01*
X64359Y-39414D01*
X64540Y-39536D01*
X64755Y-39578D01*
X64969Y-39536D01*
X65150Y-39414D01*
X65272Y-39233D01*
X65315Y-39018D01*
X65315Y-38711D01*
X65272Y-38496D01*
X65168Y-38341D01*
X65170Y-38335D01*
X65153Y-38319D01*
X65150Y-38315D01*
X65146Y-38312D01*
X64855Y-38020D01*
X64849Y-38026D01*
X64778Y-37955D01*
X64784Y-37950D01*
X64469Y-37634D01*
X64373Y-37662D01*
X64330Y-37782D01*
X64271Y-37638D01*
X64116Y-37484D01*
X63914Y-37400D01*
X63696Y-37399D01*
X63493Y-37483D01*
X63339Y-37638D01*
X63255Y-37840D01*
X63255Y-37900D01*
X63255Y-37600D01*
X63217Y-37508D01*
X63211Y-37502D01*
X63391Y-37493D01*
X63542Y-37431D01*
X63570Y-37335D01*
X63255Y-37020D01*
X63184Y-37091D01*
X63184Y-36950D01*
X62869Y-36634D01*
X62773Y-36662D01*
X62700Y-36868D01*
X62711Y-37086D01*
X62773Y-37237D01*
X62869Y-37265D01*
X63184Y-36950D01*
X63184Y-37091D01*
X62939Y-37335D01*
X62958Y-37399D01*
X62955Y-37399D01*
X62355Y-37399D01*
X62263Y-37437D01*
X62193Y-37508D01*
X62155Y-37600D01*
X62154Y-37699D01*
X62154Y-38299D01*
X62191Y-38387D01*
X62115Y-38293D01*
X61923Y-38188D01*
X61891Y-38181D01*
X61805Y-38230D01*
X61805Y-38815D01*
X61812Y-38815D01*
X61812Y-38915D01*
X61805Y-38915D01*
X61805Y-38922D01*
X61705Y-38922D01*
X61705Y-38915D01*
X61697Y-38915D01*
X61697Y-38815D01*
X61705Y-38815D01*
X61705Y-38230D01*
X61618Y-38181D01*
X61586Y-38188D01*
X61394Y-38293D01*
X61256Y-38464D01*
X61196Y-38669D01*
X61170Y-38607D01*
X61077Y-38582D01*
X61007Y-38653D01*
X61007Y-38512D01*
X60982Y-38419D01*
X60906Y-38392D01*
X60906Y-37139D01*
X60903Y-36741D01*
X60758Y-36391D01*
X60616Y-36309D01*
X59975Y-36950D01*
X60616Y-37590D01*
X60758Y-37508D01*
X60906Y-37139D01*
X60906Y-38392D01*
X60785Y-38350D01*
X60577Y-38361D01*
X60545Y-38374D01*
X60545Y-37661D01*
X59905Y-37020D01*
X59834Y-37091D01*
X59834Y-36950D01*
X59193Y-36309D01*
X59051Y-36391D01*
X58903Y-36760D01*
X58906Y-37158D01*
X59051Y-37508D01*
X59193Y-37590D01*
X59834Y-36950D01*
X59834Y-37091D01*
X59264Y-37661D01*
X59346Y-37803D01*
X59715Y-37951D01*
X60113Y-37948D01*
X60463Y-37803D01*
X60545Y-37661D01*
X60545Y-38374D01*
X60437Y-38419D01*
X60412Y-38512D01*
X60710Y-38809D01*
X61007Y-38512D01*
X61007Y-38653D01*
X60780Y-38880D01*
X60786Y-38885D01*
X60715Y-38956D01*
X60710Y-38950D01*
X60704Y-38956D01*
X60633Y-38885D01*
X60639Y-38880D01*
X60342Y-38582D01*
X60249Y-38607D01*
X60192Y-38767D01*
X60170Y-38713D01*
X60022Y-38565D01*
X59829Y-38485D01*
X59621Y-38484D01*
X59428Y-38564D01*
X59280Y-38712D01*
X59224Y-38845D01*
X59170Y-38713D01*
X59022Y-38565D01*
X58829Y-38485D01*
X58621Y-38484D01*
X58428Y-38564D01*
X58280Y-38712D01*
X58200Y-38905D01*
X58199Y-39113D01*
X58279Y-39307D01*
X58396Y-39423D01*
X58396Y-39794D01*
X58375Y-39794D01*
X58283Y-39832D01*
X58213Y-39903D01*
X58175Y-39995D01*
X58175Y-40018D01*
X58157Y-39992D01*
X57157Y-38992D01*
X57043Y-38916D01*
X56910Y-38890D01*
X56532Y-38890D01*
X56437Y-38795D01*
X56244Y-38715D01*
X56036Y-38714D01*
X55843Y-38794D01*
X55695Y-38942D01*
X55639Y-39075D01*
X55585Y-38943D01*
X55437Y-38795D01*
X55244Y-38715D01*
X55036Y-38714D01*
X54843Y-38794D01*
X54792Y-38845D01*
X54792Y-35954D01*
X54834Y-35995D01*
X54834Y-35995D01*
X54978Y-36092D01*
X55149Y-36126D01*
X55150Y-36126D01*
X55415Y-36126D01*
X55446Y-36173D01*
X55546Y-36240D01*
X55665Y-36264D01*
X55783Y-36240D01*
X55883Y-36173D01*
X55930Y-36126D01*
X55940Y-36126D01*
X59329Y-36126D01*
X59264Y-36238D01*
X59905Y-36879D01*
X60545Y-36238D01*
X60480Y-36126D01*
X67999Y-36126D01*
X68046Y-36146D01*
X68232Y-36146D01*
X68256Y-36136D01*
X69323Y-36136D01*
X69264Y-36238D01*
X69905Y-36879D01*
X70545Y-36238D01*
X70486Y-36136D01*
X71349Y-36136D01*
X71349Y-36149D01*
X71349Y-36749D01*
X71387Y-36841D01*
X71458Y-36911D01*
X71550Y-36949D01*
X71572Y-36949D01*
X71434Y-37088D01*
X71350Y-37290D01*
X71349Y-37508D01*
X71433Y-37711D01*
X71588Y-37865D01*
X71669Y-37899D01*
X71669Y-37899D01*
G37*
G54D25*
X71669Y-37899D02*
X71588Y-37933D01*
X71434Y-38088D01*
X71350Y-38290D01*
X71349Y-38411D01*
X71164Y-38335D01*
X70956Y-38334D01*
X70906Y-38355D01*
X70906Y-37139D01*
X70903Y-36741D01*
X70758Y-36391D01*
X70616Y-36309D01*
X69975Y-36950D01*
X70616Y-37590D01*
X70758Y-37508D01*
X70906Y-37139D01*
X70906Y-38355D01*
X70763Y-38414D01*
X70615Y-38562D01*
X70545Y-38730D01*
X70545Y-37661D01*
X69905Y-37020D01*
X69834Y-37091D01*
X69834Y-36950D01*
X69193Y-36309D01*
X69051Y-36391D01*
X68903Y-36760D01*
X68906Y-37158D01*
X69051Y-37508D01*
X69193Y-37590D01*
X69834Y-36950D01*
X69834Y-37091D01*
X69264Y-37661D01*
X69346Y-37803D01*
X69715Y-37951D01*
X70113Y-37948D01*
X70463Y-37803D01*
X70545Y-37661D01*
X70545Y-38730D01*
X70535Y-38755D01*
X70534Y-38963D01*
X70614Y-39157D01*
X70744Y-39287D01*
X70654Y-39250D01*
X70446Y-39249D01*
X70253Y-39329D01*
X70105Y-39477D01*
X70025Y-39670D01*
X70024Y-39878D01*
X70104Y-40072D01*
X70240Y-40208D01*
X70240Y-41493D01*
X70210Y-41506D01*
X70041Y-41674D01*
X69950Y-41895D01*
X69949Y-42080D01*
X69672Y-42080D01*
X69614Y-41994D01*
X69459Y-41890D01*
X69465Y-41888D01*
X69636Y-41750D01*
X69741Y-41558D01*
X69748Y-41526D01*
X69748Y-41253D01*
X69741Y-41221D01*
X69636Y-41029D01*
X69589Y-40991D01*
X69589Y-38935D01*
X69578Y-38727D01*
X69520Y-38587D01*
X69427Y-38562D01*
X69357Y-38633D01*
X69357Y-38492D01*
X69332Y-38399D01*
X69135Y-38330D01*
X68927Y-38341D01*
X68787Y-38399D01*
X68762Y-38492D01*
X69060Y-38789D01*
X69357Y-38492D01*
X69357Y-38633D01*
X69130Y-38860D01*
X69427Y-39157D01*
X69520Y-39132D01*
X69589Y-38935D01*
X69589Y-40991D01*
X69465Y-40891D01*
X69357Y-40859D01*
X69357Y-39227D01*
X69060Y-38930D01*
X68989Y-39001D01*
X68989Y-38860D01*
X68692Y-38562D01*
X68599Y-38587D01*
X68530Y-38784D01*
X68541Y-38992D01*
X68599Y-39132D01*
X68692Y-39157D01*
X68989Y-38860D01*
X68989Y-39001D01*
X68762Y-39227D01*
X68781Y-39300D01*
X68625Y-39245D01*
X68417Y-39256D01*
X68277Y-39314D01*
X68252Y-39407D01*
X68550Y-39704D01*
X68847Y-39407D01*
X68828Y-39334D01*
X68984Y-39389D01*
X69192Y-39378D01*
X69332Y-39320D01*
X69357Y-39227D01*
X69357Y-40859D01*
X69255Y-40830D01*
X69115Y-40830D01*
X69115Y-41340D01*
X69699Y-41340D01*
X69748Y-41253D01*
X69748Y-41526D01*
X69699Y-41440D01*
X69115Y-41440D01*
X69115Y-41447D01*
X69079Y-41447D01*
X69079Y-39850D01*
X69068Y-39642D01*
X69010Y-39502D01*
X68917Y-39477D01*
X68620Y-39775D01*
X68917Y-40072D01*
X69010Y-40047D01*
X69079Y-39850D01*
X69079Y-41447D01*
X69015Y-41447D01*
X69015Y-41440D01*
X69015Y-41340D01*
X69015Y-40830D01*
X68875Y-40830D01*
X68847Y-40838D01*
X68847Y-40142D01*
X68550Y-39845D01*
X68479Y-39916D01*
X68479Y-39775D01*
X68182Y-39477D01*
X68089Y-39502D01*
X68020Y-39699D01*
X68031Y-39907D01*
X68089Y-40047D01*
X68182Y-40072D01*
X68479Y-39775D01*
X68479Y-39916D01*
X68252Y-40142D01*
X68277Y-40235D01*
X68474Y-40304D01*
X68682Y-40293D01*
X68822Y-40235D01*
X68847Y-40142D01*
X68847Y-40838D01*
X68664Y-40891D01*
X68493Y-41029D01*
X68388Y-41221D01*
X68381Y-41253D01*
X68430Y-41340D01*
X69015Y-41340D01*
X69015Y-41440D01*
X68430Y-41440D01*
X68381Y-41526D01*
X68388Y-41558D01*
X68493Y-41750D01*
X68664Y-41888D01*
X68670Y-41890D01*
X68515Y-41994D01*
X68393Y-42175D01*
X68351Y-42390D01*
X68393Y-42604D01*
X68515Y-42785D01*
X68670Y-42890D01*
X68515Y-42994D01*
X68393Y-43175D01*
X68351Y-43390D01*
X68387Y-43570D01*
X67609Y-43570D01*
X67609Y-38031D01*
X67598Y-37813D01*
X67536Y-37662D01*
X67440Y-37634D01*
X67370Y-37705D01*
X67370Y-37564D01*
X67342Y-37468D01*
X67136Y-37395D01*
X67059Y-37399D01*
X67059Y-37031D01*
X67048Y-36813D01*
X66986Y-36662D01*
X66890Y-36634D01*
X66820Y-36705D01*
X66820Y-36564D01*
X66792Y-36468D01*
X66586Y-36395D01*
X66368Y-36406D01*
X66217Y-36468D01*
X66189Y-36564D01*
X66505Y-36879D01*
X66820Y-36564D01*
X66820Y-36705D01*
X66575Y-36950D01*
X66890Y-37265D01*
X66986Y-37237D01*
X67059Y-37031D01*
X67059Y-37399D01*
X66918Y-37406D01*
X66820Y-37446D01*
X66820Y-37335D01*
X66505Y-37020D01*
X66434Y-37091D01*
X66434Y-36950D01*
X66119Y-36634D01*
X66023Y-36662D01*
X65955Y-36854D01*
X65955Y-36841D01*
X65871Y-36638D01*
X65716Y-36484D01*
X65514Y-36400D01*
X65296Y-36399D01*
X65093Y-36483D01*
X64939Y-36638D01*
X64882Y-36773D01*
X64836Y-36662D01*
X64740Y-36634D01*
X64670Y-36705D01*
X64670Y-36564D01*
X64642Y-36468D01*
X64436Y-36395D01*
X64218Y-36406D01*
X64067Y-36468D01*
X64039Y-36564D01*
X64355Y-36879D01*
X64670Y-36564D01*
X64670Y-36705D01*
X64425Y-36950D01*
X64740Y-37265D01*
X64836Y-37237D01*
X64879Y-37117D01*
X64938Y-37261D01*
X65093Y-37415D01*
X65295Y-37499D01*
X65513Y-37500D01*
X65716Y-37416D01*
X65870Y-37261D01*
X65954Y-37059D01*
X65954Y-36963D01*
X65961Y-37086D01*
X66023Y-37237D01*
X66119Y-37265D01*
X66434Y-36950D01*
X66434Y-37091D01*
X66189Y-37335D01*
X66217Y-37431D01*
X66423Y-37504D01*
X66641Y-37493D01*
X66792Y-37431D01*
X66820Y-37335D01*
X66820Y-37446D01*
X66767Y-37468D01*
X66739Y-37564D01*
X67055Y-37879D01*
X67370Y-37564D01*
X67370Y-37705D01*
X67125Y-37950D01*
X67440Y-38265D01*
X67536Y-38237D01*
X67609Y-38031D01*
X67609Y-43570D01*
X67443Y-43570D01*
X67370Y-43498D01*
X67370Y-38335D01*
X67055Y-38020D01*
X66984Y-38091D01*
X66984Y-37950D01*
X66669Y-37634D01*
X66573Y-37662D01*
X66505Y-37854D01*
X66505Y-37841D01*
X66421Y-37638D01*
X66266Y-37484D01*
X66064Y-37400D01*
X65846Y-37399D01*
X65643Y-37483D01*
X65489Y-37638D01*
X65405Y-37840D01*
X65405Y-37936D01*
X65398Y-37813D01*
X65336Y-37662D01*
X65240Y-37634D01*
X65170Y-37705D01*
X65170Y-37564D01*
X65142Y-37468D01*
X64936Y-37395D01*
X64718Y-37406D01*
X64670Y-37426D01*
X64670Y-37335D01*
X64355Y-37020D01*
X64284Y-37091D01*
X64284Y-36950D01*
X63969Y-36634D01*
X63873Y-36662D01*
X63801Y-36864D01*
X63798Y-36813D01*
X63736Y-36662D01*
X63640Y-36634D01*
X63570Y-36705D01*
X63570Y-36564D01*
X63542Y-36468D01*
X63336Y-36395D01*
X63118Y-36406D01*
X62967Y-36468D01*
X62939Y-36564D01*
X63255Y-36879D01*
X63570Y-36564D01*
X63570Y-36705D01*
X63325Y-36950D01*
X63640Y-37265D01*
X63736Y-37237D01*
X63808Y-37035D01*
X63811Y-37086D01*
X63873Y-37237D01*
X63969Y-37265D01*
X64284Y-36950D01*
X64284Y-37091D01*
X64039Y-37335D01*
X64067Y-37431D01*
X64273Y-37504D01*
X64491Y-37493D01*
X64642Y-37431D01*
X64670Y-37335D01*
X64670Y-37426D01*
X64567Y-37468D01*
X64539Y-37564D01*
X64855Y-37879D01*
X65170Y-37564D01*
X65170Y-37705D01*
X64925Y-37950D01*
X65240Y-38265D01*
X65336Y-38237D01*
X65404Y-38045D01*
X65404Y-38058D01*
X65488Y-38261D01*
X65643Y-38415D01*
X65845Y-38499D01*
X66063Y-38500D01*
X66266Y-38416D01*
X66420Y-38261D01*
X66504Y-38059D01*
X66504Y-37963D01*
X66511Y-38086D01*
X66573Y-38237D01*
X66669Y-38265D01*
X66984Y-37950D01*
X66984Y-38091D01*
X66739Y-38335D01*
X66767Y-38431D01*
X66973Y-38504D01*
X67191Y-38493D01*
X67342Y-38431D01*
X67370Y-38335D01*
X67370Y-43498D01*
X67043Y-43171D01*
X66943Y-43104D01*
X66825Y-43080D01*
X66672Y-43080D01*
X66614Y-42994D01*
X66459Y-42890D01*
X66614Y-42785D01*
X66736Y-42604D01*
X66778Y-42390D01*
X66736Y-42175D01*
X66614Y-41994D01*
X66459Y-41890D01*
X66614Y-41785D01*
X66736Y-41604D01*
X66778Y-41390D01*
X66736Y-41175D01*
X66614Y-40994D01*
X66433Y-40872D01*
X66218Y-40830D01*
X66154Y-40830D01*
X66528Y-40456D01*
X66622Y-40456D01*
X66793Y-40385D01*
X66925Y-40254D01*
X66996Y-40083D01*
X66996Y-39897D01*
X66925Y-39726D01*
X66794Y-39594D01*
X66623Y-39523D01*
X66437Y-39523D01*
X66266Y-39594D01*
X66134Y-39725D01*
X66063Y-39896D01*
X66063Y-39991D01*
X65107Y-40947D01*
X65036Y-41054D01*
X65011Y-41180D01*
X65011Y-41221D01*
X64969Y-41193D01*
X64755Y-41151D01*
X64540Y-41193D01*
X64359Y-41315D01*
X64255Y-41470D01*
X64150Y-41315D01*
X63990Y-41208D01*
X63990Y-41208D01*
X63967Y-41172D01*
X63967Y-41172D01*
X63462Y-40667D01*
X63364Y-40602D01*
X63250Y-40580D01*
X63158Y-40580D01*
X63183Y-40563D01*
X63973Y-39773D01*
X63973Y-39773D01*
X63973Y-39773D01*
X64040Y-39673D01*
X64040Y-39673D01*
X64059Y-39578D01*
X64064Y-39555D01*
X64064Y-39555D01*
X64064Y-39555D01*
X64064Y-39472D01*
X64150Y-39414D01*
X64255Y-39259D01*
X64359Y-39414D01*
X64540Y-39536D01*
X64755Y-39578D01*
X64969Y-39536D01*
X65150Y-39414D01*
X65272Y-39233D01*
X65315Y-39018D01*
X65315Y-38711D01*
X65272Y-38496D01*
X65168Y-38341D01*
X65170Y-38335D01*
X65153Y-38319D01*
X65150Y-38315D01*
X65146Y-38312D01*
X64855Y-38020D01*
X64849Y-38026D01*
X64778Y-37955D01*
X64784Y-37950D01*
X64469Y-37634D01*
X64373Y-37662D01*
X64330Y-37782D01*
X64271Y-37638D01*
X64116Y-37484D01*
X63914Y-37400D01*
X63696Y-37399D01*
X63493Y-37483D01*
X63339Y-37638D01*
X63255Y-37840D01*
X63255Y-37900D01*
X63255Y-37600D01*
X63217Y-37508D01*
X63211Y-37502D01*
X63391Y-37493D01*
X63542Y-37431D01*
X63570Y-37335D01*
X63255Y-37020D01*
X63184Y-37091D01*
X63184Y-36950D01*
X62869Y-36634D01*
X62773Y-36662D01*
X62700Y-36868D01*
X62711Y-37086D01*
X62773Y-37237D01*
X62869Y-37265D01*
X63184Y-36950D01*
X63184Y-37091D01*
X62939Y-37335D01*
X62958Y-37399D01*
X62955Y-37399D01*
X62355Y-37399D01*
X62263Y-37437D01*
X62193Y-37508D01*
X62155Y-37600D01*
X62154Y-37699D01*
X62154Y-38299D01*
X62191Y-38387D01*
X62115Y-38293D01*
X61923Y-38188D01*
X61891Y-38181D01*
X61805Y-38230D01*
X61805Y-38815D01*
X61812Y-38815D01*
X61812Y-38915D01*
X61805Y-38915D01*
X61805Y-38922D01*
X61705Y-38922D01*
X61705Y-38915D01*
X61697Y-38915D01*
X61697Y-38815D01*
X61705Y-38815D01*
X61705Y-38230D01*
X61618Y-38181D01*
X61586Y-38188D01*
X61394Y-38293D01*
X61256Y-38464D01*
X61196Y-38669D01*
X61170Y-38607D01*
X61077Y-38582D01*
X61007Y-38653D01*
X61007Y-38512D01*
X60982Y-38419D01*
X60906Y-38392D01*
X60906Y-37139D01*
X60903Y-36741D01*
X60758Y-36391D01*
X60616Y-36309D01*
X59975Y-36950D01*
X60616Y-37590D01*
X60758Y-37508D01*
X60906Y-37139D01*
X60906Y-38392D01*
X60785Y-38350D01*
X60577Y-38361D01*
X60545Y-38374D01*
X60545Y-37661D01*
X59905Y-37020D01*
X59834Y-37091D01*
X59834Y-36950D01*
X59193Y-36309D01*
X59051Y-36391D01*
X58903Y-36760D01*
X58906Y-37158D01*
X59051Y-37508D01*
X59193Y-37590D01*
X59834Y-36950D01*
X59834Y-37091D01*
X59264Y-37661D01*
X59346Y-37803D01*
X59715Y-37951D01*
X60113Y-37948D01*
X60463Y-37803D01*
X60545Y-37661D01*
X60545Y-38374D01*
X60437Y-38419D01*
X60412Y-38512D01*
X60710Y-38809D01*
X61007Y-38512D01*
X61007Y-38653D01*
X60780Y-38880D01*
X60786Y-38885D01*
X60715Y-38956D01*
X60710Y-38950D01*
X60704Y-38956D01*
X60633Y-38885D01*
X60639Y-38880D01*
X60342Y-38582D01*
X60249Y-38607D01*
X60192Y-38767D01*
X60170Y-38713D01*
X60022Y-38565D01*
X59829Y-38485D01*
X59621Y-38484D01*
X59428Y-38564D01*
X59280Y-38712D01*
X59224Y-38845D01*
X59170Y-38713D01*
X59022Y-38565D01*
X58829Y-38485D01*
X58621Y-38484D01*
X58428Y-38564D01*
X58280Y-38712D01*
X58200Y-38905D01*
X58199Y-39113D01*
X58279Y-39307D01*
X58396Y-39423D01*
X58396Y-39794D01*
X58375Y-39794D01*
X58283Y-39832D01*
X58213Y-39903D01*
X58175Y-39995D01*
X58175Y-40018D01*
X58157Y-39992D01*
X57157Y-38992D01*
X57043Y-38916D01*
X56910Y-38890D01*
X56532Y-38890D01*
X56437Y-38795D01*
X56244Y-38715D01*
X56036Y-38714D01*
X55843Y-38794D01*
X55695Y-38942D01*
X55639Y-39075D01*
X55585Y-38943D01*
X55437Y-38795D01*
X55244Y-38715D01*
X55036Y-38714D01*
X54843Y-38794D01*
X54792Y-38845D01*
X54792Y-35954D01*
X54834Y-35995D01*
X54834Y-35995D01*
X54978Y-36092D01*
X55149Y-36126D01*
X55150Y-36126D01*
X55415Y-36126D01*
X55446Y-36173D01*
X55546Y-36240D01*
X55665Y-36264D01*
X55783Y-36240D01*
X55883Y-36173D01*
X55930Y-36126D01*
X55940Y-36126D01*
X59329Y-36126D01*
X59264Y-36238D01*
X59905Y-36879D01*
X60545Y-36238D01*
X60480Y-36126D01*
X67999Y-36126D01*
X68046Y-36146D01*
X68232Y-36146D01*
X68256Y-36136D01*
X69323Y-36136D01*
X69264Y-36238D01*
X69905Y-36879D01*
X70545Y-36238D01*
X70486Y-36136D01*
X71349Y-36136D01*
X71349Y-36149D01*
X71349Y-36749D01*
X71387Y-36841D01*
X71458Y-36911D01*
X71550Y-36949D01*
X71572Y-36949D01*
X71434Y-37088D01*
X71350Y-37290D01*
X71349Y-37508D01*
X71433Y-37711D01*
X71588Y-37865D01*
X71669Y-37899D01*
G54D10*
G36*
X71669Y-43899D02*
X71588Y-43933D01*
X71434Y-44088D01*
X71350Y-44290D01*
X71350Y-44399D01*
X71283Y-44354D01*
X71165Y-44330D01*
X71068Y-44330D01*
X71149Y-44134D01*
X71150Y-43896D01*
X71058Y-43675D01*
X71046Y-43663D01*
X71128Y-43608D01*
X71278Y-43458D01*
X71345Y-43358D01*
X71345Y-43358D01*
X71350Y-43335D01*
X71349Y-43508D01*
X71433Y-43711D01*
X71588Y-43865D01*
X71669Y-43899D01*
X71669Y-43899D01*
G37*
G54D25*
X71669Y-43899D02*
X71588Y-43933D01*
X71434Y-44088D01*
X71350Y-44290D01*
X71350Y-44399D01*
X71283Y-44354D01*
X71165Y-44330D01*
X71068Y-44330D01*
X71149Y-44134D01*
X71150Y-43896D01*
X71058Y-43675D01*
X71046Y-43663D01*
X71128Y-43608D01*
X71278Y-43458D01*
X71345Y-43358D01*
X71345Y-43358D01*
X71350Y-43335D01*
X71349Y-43508D01*
X71433Y-43711D01*
X71588Y-43865D01*
X71669Y-43899D01*
G54D10*
G36*
X73479Y-31375D02*
X73475Y-51010D01*
X73454Y-51010D01*
X73454Y-38481D01*
X73443Y-38263D01*
X73381Y-38112D01*
X73285Y-38084D01*
X72970Y-38400D01*
X73285Y-38715D01*
X73381Y-38687D01*
X73454Y-38481D01*
X73454Y-51010D01*
X70674Y-51010D01*
X70674Y-49465D01*
X70663Y-49257D01*
X70605Y-49117D01*
X70512Y-49092D01*
X70215Y-49390D01*
X70512Y-49687D01*
X70605Y-49662D01*
X70674Y-49465D01*
X70674Y-51010D01*
X70442Y-51010D01*
X70442Y-49757D01*
X70145Y-49460D01*
X69847Y-49757D01*
X69872Y-49850D01*
X70069Y-49919D01*
X70277Y-49908D01*
X70417Y-49850D01*
X70442Y-49757D01*
X70442Y-51010D01*
X66539Y-51011D01*
X66539Y-50575D01*
X66528Y-50367D01*
X66470Y-50227D01*
X66377Y-50202D01*
X66307Y-50273D01*
X66307Y-50132D01*
X66282Y-50039D01*
X66085Y-49970D01*
X65877Y-49981D01*
X65737Y-50039D01*
X65712Y-50132D01*
X66010Y-50429D01*
X66307Y-50132D01*
X66307Y-50273D01*
X66080Y-50500D01*
X66377Y-50797D01*
X66470Y-50772D01*
X66539Y-50575D01*
X66539Y-51011D01*
X66159Y-51011D01*
X66282Y-50960D01*
X66307Y-50867D01*
X66010Y-50570D01*
X65939Y-50641D01*
X65939Y-50500D01*
X65642Y-50202D01*
X65549Y-50227D01*
X65480Y-50424D01*
X65491Y-50632D01*
X65549Y-50772D01*
X65642Y-50797D01*
X65939Y-50500D01*
X65939Y-50641D01*
X65712Y-50867D01*
X65737Y-50960D01*
X65882Y-51011D01*
X64145Y-51012D01*
X64307Y-50945D01*
X64454Y-50797D01*
X64534Y-50604D01*
X64535Y-50396D01*
X64455Y-50203D01*
X64307Y-50055D01*
X64114Y-49975D01*
X63906Y-49974D01*
X63713Y-50054D01*
X63565Y-50202D01*
X63485Y-50395D01*
X63484Y-50603D01*
X63564Y-50797D01*
X63712Y-50944D01*
X63874Y-51012D01*
X60106Y-51013D01*
X60106Y-45601D01*
X60103Y-45183D01*
X59949Y-44811D01*
X59802Y-44723D01*
X59731Y-44794D01*
X59731Y-44652D01*
X59643Y-44505D01*
X59256Y-44348D01*
X58838Y-44351D01*
X58466Y-44505D01*
X58378Y-44652D01*
X59055Y-45329D01*
X59731Y-44652D01*
X59731Y-44794D01*
X59125Y-45400D01*
X59802Y-46076D01*
X59949Y-45988D01*
X60106Y-45601D01*
X60106Y-51013D01*
X59731Y-51013D01*
X59731Y-46147D01*
X59055Y-45470D01*
X58984Y-45541D01*
X58984Y-45400D01*
X58307Y-44723D01*
X58160Y-44811D01*
X58003Y-45198D01*
X58006Y-45616D01*
X58160Y-45988D01*
X58307Y-46076D01*
X58984Y-45400D01*
X58984Y-45541D01*
X58378Y-46147D01*
X58466Y-46294D01*
X58854Y-46451D01*
X59271Y-46448D01*
X59643Y-46294D01*
X59731Y-46147D01*
X59731Y-51013D01*
X59040Y-51013D01*
X59040Y-50090D01*
X59040Y-49589D01*
X59039Y-49490D01*
X59001Y-49398D01*
X58931Y-49327D01*
X58839Y-49289D01*
X58602Y-49290D01*
X58540Y-49352D01*
X58540Y-49790D01*
X58977Y-49790D01*
X59040Y-49727D01*
X59040Y-49589D01*
X59040Y-50090D01*
X59040Y-49952D01*
X58977Y-49890D01*
X58540Y-49890D01*
X58540Y-50327D01*
X58602Y-50390D01*
X58839Y-50390D01*
X58931Y-50352D01*
X59001Y-50281D01*
X59039Y-50189D01*
X59040Y-50090D01*
X59040Y-51013D01*
X58440Y-51013D01*
X58440Y-50327D01*
X58440Y-49890D01*
X58432Y-49890D01*
X58432Y-49790D01*
X58440Y-49790D01*
X58440Y-49352D01*
X58377Y-49290D01*
X58140Y-49289D01*
X58048Y-49327D01*
X57990Y-49386D01*
X57990Y-48380D01*
X57990Y-48240D01*
X57990Y-48140D01*
X57990Y-48000D01*
X57928Y-47789D01*
X57790Y-47618D01*
X57598Y-47513D01*
X57566Y-47506D01*
X57480Y-47555D01*
X57480Y-48140D01*
X57990Y-48140D01*
X57990Y-48240D01*
X57480Y-48240D01*
X57480Y-48824D01*
X57566Y-48873D01*
X57598Y-48866D01*
X57790Y-48761D01*
X57928Y-48590D01*
X57990Y-48380D01*
X57990Y-49386D01*
X57978Y-49398D01*
X57940Y-49490D01*
X57940Y-49512D01*
X57801Y-49374D01*
X57599Y-49290D01*
X57381Y-49289D01*
X57378Y-49291D01*
X56826Y-48739D01*
X56929Y-48584D01*
X56931Y-48590D01*
X57069Y-48761D01*
X57261Y-48866D01*
X57293Y-48873D01*
X57380Y-48824D01*
X57380Y-48240D01*
X57372Y-48240D01*
X57372Y-48140D01*
X57380Y-48140D01*
X57380Y-47555D01*
X57293Y-47506D01*
X57261Y-47513D01*
X57069Y-47618D01*
X56931Y-47789D01*
X56929Y-47795D01*
X56825Y-47640D01*
X56644Y-47518D01*
X56430Y-47476D01*
X56215Y-47518D01*
X56034Y-47640D01*
X55930Y-47795D01*
X55825Y-47640D01*
X55644Y-47518D01*
X55430Y-47476D01*
X55215Y-47518D01*
X55034Y-47640D01*
X54990Y-47706D01*
X54990Y-47690D01*
X54952Y-47598D01*
X54881Y-47528D01*
X54789Y-47490D01*
X54690Y-47489D01*
X54070Y-47489D01*
X53978Y-47527D01*
X53908Y-47598D01*
X53870Y-47690D01*
X53869Y-47789D01*
X53869Y-48689D01*
X53907Y-48781D01*
X53978Y-48851D01*
X54070Y-48889D01*
X54120Y-48890D01*
X54120Y-49294D01*
X54080Y-49294D01*
X53988Y-49332D01*
X53918Y-49403D01*
X53880Y-49495D01*
X53879Y-49594D01*
X53879Y-50194D01*
X53917Y-50286D01*
X53988Y-50356D01*
X54080Y-50394D01*
X54179Y-50395D01*
X54779Y-50395D01*
X54871Y-50357D01*
X54941Y-50286D01*
X54979Y-50194D01*
X54979Y-50172D01*
X55118Y-50310D01*
X55320Y-50394D01*
X55538Y-50395D01*
X55741Y-50311D01*
X55895Y-50156D01*
X55979Y-49954D01*
X55980Y-49736D01*
X55896Y-49533D01*
X55741Y-49379D01*
X55739Y-49377D01*
X55739Y-48797D01*
X55825Y-48739D01*
X55930Y-48584D01*
X56034Y-48739D01*
X56125Y-48800D01*
X56144Y-48898D01*
X56211Y-48998D01*
X56940Y-49728D01*
X56940Y-49730D01*
X56939Y-49948D01*
X57023Y-50151D01*
X57178Y-50305D01*
X57380Y-50389D01*
X57598Y-50390D01*
X57801Y-50306D01*
X57940Y-50167D01*
X57940Y-50189D01*
X57978Y-50281D01*
X58048Y-50352D01*
X58140Y-50390D01*
X58377Y-50390D01*
X58440Y-50327D01*
X58440Y-51013D01*
X52305Y-51014D01*
X52307Y-42459D01*
X52429Y-42643D01*
X52734Y-42846D01*
X53093Y-42918D01*
X53453Y-42846D01*
X53757Y-42643D01*
X53881Y-42458D01*
X54004Y-42643D01*
X54309Y-42846D01*
X54668Y-42918D01*
X55027Y-42846D01*
X55321Y-42650D01*
X55321Y-43033D01*
X54197Y-44157D01*
X54126Y-44264D01*
X54101Y-44390D01*
X54101Y-44595D01*
X54034Y-44640D01*
X53912Y-44821D01*
X53870Y-45036D01*
X53870Y-45343D01*
X53912Y-45558D01*
X54034Y-45739D01*
X54215Y-45861D01*
X54430Y-45903D01*
X54644Y-45861D01*
X54825Y-45739D01*
X54930Y-45584D01*
X55034Y-45739D01*
X55215Y-45861D01*
X55430Y-45903D01*
X55644Y-45861D01*
X55825Y-45739D01*
X55930Y-45584D01*
X56034Y-45739D01*
X56215Y-45861D01*
X56430Y-45903D01*
X56644Y-45861D01*
X56825Y-45739D01*
X56930Y-45584D01*
X57034Y-45739D01*
X57215Y-45861D01*
X57430Y-45903D01*
X57644Y-45861D01*
X57825Y-45739D01*
X57947Y-45558D01*
X57990Y-45343D01*
X57990Y-45036D01*
X57947Y-44821D01*
X57825Y-44640D01*
X57644Y-44518D01*
X57575Y-44505D01*
X57575Y-42006D01*
X57575Y-41750D01*
X57575Y-41650D01*
X57575Y-41393D01*
X57485Y-41038D01*
X57265Y-40744D01*
X56950Y-40557D01*
X56833Y-40525D01*
X56687Y-40568D01*
X56687Y-41650D01*
X57575Y-41650D01*
X57575Y-41750D01*
X56687Y-41750D01*
X56687Y-42831D01*
X56833Y-42874D01*
X56950Y-42842D01*
X57265Y-42655D01*
X57485Y-42361D01*
X57575Y-42006D01*
X57575Y-44505D01*
X57430Y-44476D01*
X57215Y-44518D01*
X57034Y-44640D01*
X56930Y-44795D01*
X56825Y-44640D01*
X56644Y-44518D01*
X56430Y-44476D01*
X56215Y-44518D01*
X56034Y-44640D01*
X55930Y-44795D01*
X55825Y-44640D01*
X55644Y-44518D01*
X55430Y-44476D01*
X55215Y-44518D01*
X55034Y-44640D01*
X54930Y-44795D01*
X54825Y-44640D01*
X54758Y-44595D01*
X54758Y-44526D01*
X55882Y-43402D01*
X55882Y-43402D01*
X55882Y-43402D01*
X55953Y-43295D01*
X55978Y-43170D01*
X55978Y-43170D01*
X55978Y-42615D01*
X56008Y-42655D01*
X56323Y-42842D01*
X56440Y-42874D01*
X56587Y-42831D01*
X56587Y-41750D01*
X56579Y-41750D01*
X56579Y-41650D01*
X56587Y-41650D01*
X56587Y-40568D01*
X56440Y-40525D01*
X56323Y-40557D01*
X56008Y-40744D01*
X55970Y-40795D01*
X55953Y-40712D01*
X55953Y-40712D01*
X55882Y-40605D01*
X55041Y-39764D01*
X55243Y-39765D01*
X55437Y-39685D01*
X55584Y-39537D01*
X55640Y-39404D01*
X55694Y-39537D01*
X55842Y-39684D01*
X56035Y-39764D01*
X56243Y-39765D01*
X56437Y-39685D01*
X56532Y-39590D01*
X56765Y-39590D01*
X57560Y-40384D01*
X57560Y-40930D01*
X57586Y-41063D01*
X57662Y-41177D01*
X58022Y-41537D01*
X58022Y-41537D01*
X58136Y-41613D01*
X58269Y-41639D01*
X58270Y-41640D01*
X59295Y-41640D01*
X60571Y-42915D01*
X60571Y-47719D01*
X60597Y-47852D01*
X60673Y-47966D01*
X62349Y-49642D01*
X62349Y-49642D01*
X62463Y-49718D01*
X62597Y-49745D01*
X64592Y-49745D01*
X64687Y-49839D01*
X64880Y-49919D01*
X65088Y-49920D01*
X65282Y-49840D01*
X65382Y-49740D01*
X65484Y-49740D01*
X65515Y-49785D01*
X65696Y-49907D01*
X65911Y-49950D01*
X66218Y-49950D01*
X66433Y-49907D01*
X66614Y-49785D01*
X66736Y-49604D01*
X66778Y-49390D01*
X66740Y-49199D01*
X67905Y-49199D01*
X68023Y-49175D01*
X68023Y-49175D01*
X68123Y-49108D01*
X68487Y-48744D01*
X68515Y-48785D01*
X68581Y-48829D01*
X68565Y-48829D01*
X68473Y-48867D01*
X68403Y-48938D01*
X68365Y-49030D01*
X68364Y-49129D01*
X68364Y-49749D01*
X68402Y-49841D01*
X68473Y-49911D01*
X68565Y-49949D01*
X68664Y-49950D01*
X69564Y-49950D01*
X69656Y-49912D01*
X69726Y-49841D01*
X69764Y-49749D01*
X69765Y-49683D01*
X69777Y-49687D01*
X70074Y-49390D01*
X69777Y-49092D01*
X69765Y-49096D01*
X69765Y-49030D01*
X69727Y-48938D01*
X69656Y-48868D01*
X69564Y-48830D01*
X69548Y-48830D01*
X69614Y-48785D01*
X69672Y-48699D01*
X69711Y-48699D01*
X69847Y-48834D01*
X69973Y-48887D01*
X69872Y-48929D01*
X69847Y-49022D01*
X70145Y-49319D01*
X70442Y-49022D01*
X70417Y-48929D01*
X70307Y-48890D01*
X70442Y-48835D01*
X70589Y-48687D01*
X70669Y-48494D01*
X70670Y-48286D01*
X70590Y-48093D01*
X70442Y-47945D01*
X70249Y-47865D01*
X70042Y-47864D01*
X70198Y-47709D01*
X71432Y-47709D01*
X71433Y-47711D01*
X71588Y-47865D01*
X71669Y-47899D01*
X71588Y-47933D01*
X71434Y-48088D01*
X71350Y-48290D01*
X71349Y-48508D01*
X71433Y-48711D01*
X71588Y-48865D01*
X71790Y-48949D01*
X72008Y-48950D01*
X72211Y-48866D01*
X72365Y-48711D01*
X72399Y-48630D01*
X72433Y-48711D01*
X72588Y-48865D01*
X72790Y-48949D01*
X73008Y-48950D01*
X73211Y-48866D01*
X73365Y-48711D01*
X73449Y-48509D01*
X73450Y-48291D01*
X73366Y-48088D01*
X73211Y-47934D01*
X73130Y-47900D01*
X73211Y-47866D01*
X73365Y-47711D01*
X73449Y-47509D01*
X73450Y-47291D01*
X73366Y-47088D01*
X73211Y-46934D01*
X73130Y-46900D01*
X73211Y-46866D01*
X73365Y-46711D01*
X73449Y-46509D01*
X73450Y-46291D01*
X73366Y-46088D01*
X73211Y-45934D01*
X73130Y-45900D01*
X73211Y-45866D01*
X73365Y-45711D01*
X73449Y-45509D01*
X73450Y-45291D01*
X73366Y-45088D01*
X73211Y-44934D01*
X73130Y-44900D01*
X73211Y-44866D01*
X73365Y-44711D01*
X73449Y-44509D01*
X73450Y-44291D01*
X73366Y-44088D01*
X73211Y-43934D01*
X73130Y-43900D01*
X73211Y-43866D01*
X73365Y-43711D01*
X73449Y-43509D01*
X73450Y-43291D01*
X73366Y-43088D01*
X73211Y-42934D01*
X73130Y-42900D01*
X73211Y-42866D01*
X73365Y-42711D01*
X73449Y-42509D01*
X73450Y-42291D01*
X73366Y-42088D01*
X73211Y-41934D01*
X73130Y-41900D01*
X73211Y-41866D01*
X73365Y-41711D01*
X73449Y-41509D01*
X73450Y-41291D01*
X73366Y-41088D01*
X73211Y-40934D01*
X73130Y-40900D01*
X73211Y-40866D01*
X73365Y-40711D01*
X73449Y-40509D01*
X73450Y-40291D01*
X73366Y-40088D01*
X73211Y-39934D01*
X73130Y-39900D01*
X73211Y-39866D01*
X73365Y-39711D01*
X73449Y-39509D01*
X73450Y-39291D01*
X73366Y-39088D01*
X73211Y-38934D01*
X73136Y-38902D01*
X73187Y-38881D01*
X73215Y-38785D01*
X72900Y-38470D01*
X72584Y-38785D01*
X72612Y-38881D01*
X72667Y-38900D01*
X72588Y-38933D01*
X72434Y-39088D01*
X72400Y-39169D01*
X72366Y-39088D01*
X72211Y-38934D01*
X72130Y-38900D01*
X72211Y-38866D01*
X72365Y-38711D01*
X72397Y-38636D01*
X72418Y-38687D01*
X72514Y-38715D01*
X72829Y-38400D01*
X72514Y-38084D01*
X72418Y-38112D01*
X72399Y-38167D01*
X72366Y-38088D01*
X72211Y-37934D01*
X72130Y-37900D01*
X72211Y-37866D01*
X72365Y-37711D01*
X72399Y-37630D01*
X72433Y-37711D01*
X72588Y-37865D01*
X72663Y-37897D01*
X72612Y-37918D01*
X72584Y-38014D01*
X72900Y-38329D01*
X73215Y-38014D01*
X73187Y-37918D01*
X73132Y-37899D01*
X73211Y-37866D01*
X73365Y-37711D01*
X73449Y-37509D01*
X73450Y-37291D01*
X73366Y-37088D01*
X73211Y-36934D01*
X73130Y-36900D01*
X73211Y-36866D01*
X73365Y-36711D01*
X73449Y-36509D01*
X73450Y-36291D01*
X73366Y-36088D01*
X73320Y-36042D01*
X73320Y-36042D01*
X73312Y-36003D01*
X73215Y-35859D01*
X73215Y-35859D01*
X72730Y-35374D01*
X72586Y-35277D01*
X72415Y-35243D01*
X68304Y-35243D01*
X68233Y-35213D01*
X68047Y-35213D01*
X67999Y-35233D01*
X58076Y-35233D01*
X58076Y-32050D01*
X58076Y-31873D01*
X57561Y-31873D01*
X57561Y-32500D01*
X57648Y-32548D01*
X57681Y-32541D01*
X57875Y-32435D01*
X58013Y-32262D01*
X58076Y-32050D01*
X58076Y-35233D01*
X55940Y-35233D01*
X55335Y-35233D01*
X54910Y-34808D01*
X54910Y-33375D01*
X57265Y-33375D01*
X57265Y-32683D01*
X57271Y-32673D01*
X57302Y-32520D01*
X57341Y-32541D01*
X57373Y-32548D01*
X57461Y-32500D01*
X57461Y-31873D01*
X57453Y-31873D01*
X57453Y-31773D01*
X57461Y-31773D01*
X57461Y-31765D01*
X57561Y-31765D01*
X57561Y-31773D01*
X58076Y-31773D01*
X58076Y-31596D01*
X58013Y-31383D01*
X58006Y-31375D01*
X73479Y-31375D01*
X73479Y-31375D01*
G37*
G54D25*
X73479Y-31375D02*
X73475Y-51010D01*
X73454Y-51010D01*
X73454Y-38481D01*
X73443Y-38263D01*
X73381Y-38112D01*
X73285Y-38084D01*
X72970Y-38400D01*
X73285Y-38715D01*
X73381Y-38687D01*
X73454Y-38481D01*
X73454Y-51010D01*
X70674Y-51010D01*
X70674Y-49465D01*
X70663Y-49257D01*
X70605Y-49117D01*
X70512Y-49092D01*
X70215Y-49390D01*
X70512Y-49687D01*
X70605Y-49662D01*
X70674Y-49465D01*
X70674Y-51010D01*
X70442Y-51010D01*
X70442Y-49757D01*
X70145Y-49460D01*
X69847Y-49757D01*
X69872Y-49850D01*
X70069Y-49919D01*
X70277Y-49908D01*
X70417Y-49850D01*
X70442Y-49757D01*
X70442Y-51010D01*
X66539Y-51011D01*
X66539Y-50575D01*
X66528Y-50367D01*
X66470Y-50227D01*
X66377Y-50202D01*
X66307Y-50273D01*
X66307Y-50132D01*
X66282Y-50039D01*
X66085Y-49970D01*
X65877Y-49981D01*
X65737Y-50039D01*
X65712Y-50132D01*
X66010Y-50429D01*
X66307Y-50132D01*
X66307Y-50273D01*
X66080Y-50500D01*
X66377Y-50797D01*
X66470Y-50772D01*
X66539Y-50575D01*
X66539Y-51011D01*
X66159Y-51011D01*
X66282Y-50960D01*
X66307Y-50867D01*
X66010Y-50570D01*
X65939Y-50641D01*
X65939Y-50500D01*
X65642Y-50202D01*
X65549Y-50227D01*
X65480Y-50424D01*
X65491Y-50632D01*
X65549Y-50772D01*
X65642Y-50797D01*
X65939Y-50500D01*
X65939Y-50641D01*
X65712Y-50867D01*
X65737Y-50960D01*
X65882Y-51011D01*
X64145Y-51012D01*
X64307Y-50945D01*
X64454Y-50797D01*
X64534Y-50604D01*
X64535Y-50396D01*
X64455Y-50203D01*
X64307Y-50055D01*
X64114Y-49975D01*
X63906Y-49974D01*
X63713Y-50054D01*
X63565Y-50202D01*
X63485Y-50395D01*
X63484Y-50603D01*
X63564Y-50797D01*
X63712Y-50944D01*
X63874Y-51012D01*
X60106Y-51013D01*
X60106Y-45601D01*
X60103Y-45183D01*
X59949Y-44811D01*
X59802Y-44723D01*
X59731Y-44794D01*
X59731Y-44652D01*
X59643Y-44505D01*
X59256Y-44348D01*
X58838Y-44351D01*
X58466Y-44505D01*
X58378Y-44652D01*
X59055Y-45329D01*
X59731Y-44652D01*
X59731Y-44794D01*
X59125Y-45400D01*
X59802Y-46076D01*
X59949Y-45988D01*
X60106Y-45601D01*
X60106Y-51013D01*
X59731Y-51013D01*
X59731Y-46147D01*
X59055Y-45470D01*
X58984Y-45541D01*
X58984Y-45400D01*
X58307Y-44723D01*
X58160Y-44811D01*
X58003Y-45198D01*
X58006Y-45616D01*
X58160Y-45988D01*
X58307Y-46076D01*
X58984Y-45400D01*
X58984Y-45541D01*
X58378Y-46147D01*
X58466Y-46294D01*
X58854Y-46451D01*
X59271Y-46448D01*
X59643Y-46294D01*
X59731Y-46147D01*
X59731Y-51013D01*
X59040Y-51013D01*
X59040Y-50090D01*
X59040Y-49589D01*
X59039Y-49490D01*
X59001Y-49398D01*
X58931Y-49327D01*
X58839Y-49289D01*
X58602Y-49290D01*
X58540Y-49352D01*
X58540Y-49790D01*
X58977Y-49790D01*
X59040Y-49727D01*
X59040Y-49589D01*
X59040Y-50090D01*
X59040Y-49952D01*
X58977Y-49890D01*
X58540Y-49890D01*
X58540Y-50327D01*
X58602Y-50390D01*
X58839Y-50390D01*
X58931Y-50352D01*
X59001Y-50281D01*
X59039Y-50189D01*
X59040Y-50090D01*
X59040Y-51013D01*
X58440Y-51013D01*
X58440Y-50327D01*
X58440Y-49890D01*
X58432Y-49890D01*
X58432Y-49790D01*
X58440Y-49790D01*
X58440Y-49352D01*
X58377Y-49290D01*
X58140Y-49289D01*
X58048Y-49327D01*
X57990Y-49386D01*
X57990Y-48380D01*
X57990Y-48240D01*
X57990Y-48140D01*
X57990Y-48000D01*
X57928Y-47789D01*
X57790Y-47618D01*
X57598Y-47513D01*
X57566Y-47506D01*
X57480Y-47555D01*
X57480Y-48140D01*
X57990Y-48140D01*
X57990Y-48240D01*
X57480Y-48240D01*
X57480Y-48824D01*
X57566Y-48873D01*
X57598Y-48866D01*
X57790Y-48761D01*
X57928Y-48590D01*
X57990Y-48380D01*
X57990Y-49386D01*
X57978Y-49398D01*
X57940Y-49490D01*
X57940Y-49512D01*
X57801Y-49374D01*
X57599Y-49290D01*
X57381Y-49289D01*
X57378Y-49291D01*
X56826Y-48739D01*
X56929Y-48584D01*
X56931Y-48590D01*
X57069Y-48761D01*
X57261Y-48866D01*
X57293Y-48873D01*
X57380Y-48824D01*
X57380Y-48240D01*
X57372Y-48240D01*
X57372Y-48140D01*
X57380Y-48140D01*
X57380Y-47555D01*
X57293Y-47506D01*
X57261Y-47513D01*
X57069Y-47618D01*
X56931Y-47789D01*
X56929Y-47795D01*
X56825Y-47640D01*
X56644Y-47518D01*
X56430Y-47476D01*
X56215Y-47518D01*
X56034Y-47640D01*
X55930Y-47795D01*
X55825Y-47640D01*
X55644Y-47518D01*
X55430Y-47476D01*
X55215Y-47518D01*
X55034Y-47640D01*
X54990Y-47706D01*
X54990Y-47690D01*
X54952Y-47598D01*
X54881Y-47528D01*
X54789Y-47490D01*
X54690Y-47489D01*
X54070Y-47489D01*
X53978Y-47527D01*
X53908Y-47598D01*
X53870Y-47690D01*
X53869Y-47789D01*
X53869Y-48689D01*
X53907Y-48781D01*
X53978Y-48851D01*
X54070Y-48889D01*
X54120Y-48890D01*
X54120Y-49294D01*
X54080Y-49294D01*
X53988Y-49332D01*
X53918Y-49403D01*
X53880Y-49495D01*
X53879Y-49594D01*
X53879Y-50194D01*
X53917Y-50286D01*
X53988Y-50356D01*
X54080Y-50394D01*
X54179Y-50395D01*
X54779Y-50395D01*
X54871Y-50357D01*
X54941Y-50286D01*
X54979Y-50194D01*
X54979Y-50172D01*
X55118Y-50310D01*
X55320Y-50394D01*
X55538Y-50395D01*
X55741Y-50311D01*
X55895Y-50156D01*
X55979Y-49954D01*
X55980Y-49736D01*
X55896Y-49533D01*
X55741Y-49379D01*
X55739Y-49377D01*
X55739Y-48797D01*
X55825Y-48739D01*
X55930Y-48584D01*
X56034Y-48739D01*
X56125Y-48800D01*
X56144Y-48898D01*
X56211Y-48998D01*
X56940Y-49728D01*
X56940Y-49730D01*
X56939Y-49948D01*
X57023Y-50151D01*
X57178Y-50305D01*
X57380Y-50389D01*
X57598Y-50390D01*
X57801Y-50306D01*
X57940Y-50167D01*
X57940Y-50189D01*
X57978Y-50281D01*
X58048Y-50352D01*
X58140Y-50390D01*
X58377Y-50390D01*
X58440Y-50327D01*
X58440Y-51013D01*
X52305Y-51014D01*
X52307Y-42459D01*
X52429Y-42643D01*
X52734Y-42846D01*
X53093Y-42918D01*
X53453Y-42846D01*
X53757Y-42643D01*
X53881Y-42458D01*
X54004Y-42643D01*
X54309Y-42846D01*
X54668Y-42918D01*
X55027Y-42846D01*
X55321Y-42650D01*
X55321Y-43033D01*
X54197Y-44157D01*
X54126Y-44264D01*
X54101Y-44390D01*
X54101Y-44595D01*
X54034Y-44640D01*
X53912Y-44821D01*
X53870Y-45036D01*
X53870Y-45343D01*
X53912Y-45558D01*
X54034Y-45739D01*
X54215Y-45861D01*
X54430Y-45903D01*
X54644Y-45861D01*
X54825Y-45739D01*
X54930Y-45584D01*
X55034Y-45739D01*
X55215Y-45861D01*
X55430Y-45903D01*
X55644Y-45861D01*
X55825Y-45739D01*
X55930Y-45584D01*
X56034Y-45739D01*
X56215Y-45861D01*
X56430Y-45903D01*
X56644Y-45861D01*
X56825Y-45739D01*
X56930Y-45584D01*
X57034Y-45739D01*
X57215Y-45861D01*
X57430Y-45903D01*
X57644Y-45861D01*
X57825Y-45739D01*
X57947Y-45558D01*
X57990Y-45343D01*
X57990Y-45036D01*
X57947Y-44821D01*
X57825Y-44640D01*
X57644Y-44518D01*
X57575Y-44505D01*
X57575Y-42006D01*
X57575Y-41750D01*
X57575Y-41650D01*
X57575Y-41393D01*
X57485Y-41038D01*
X57265Y-40744D01*
X56950Y-40557D01*
X56833Y-40525D01*
X56687Y-40568D01*
X56687Y-41650D01*
X57575Y-41650D01*
X57575Y-41750D01*
X56687Y-41750D01*
X56687Y-42831D01*
X56833Y-42874D01*
X56950Y-42842D01*
X57265Y-42655D01*
X57485Y-42361D01*
X57575Y-42006D01*
X57575Y-44505D01*
X57430Y-44476D01*
X57215Y-44518D01*
X57034Y-44640D01*
X56930Y-44795D01*
X56825Y-44640D01*
X56644Y-44518D01*
X56430Y-44476D01*
X56215Y-44518D01*
X56034Y-44640D01*
X55930Y-44795D01*
X55825Y-44640D01*
X55644Y-44518D01*
X55430Y-44476D01*
X55215Y-44518D01*
X55034Y-44640D01*
X54930Y-44795D01*
X54825Y-44640D01*
X54758Y-44595D01*
X54758Y-44526D01*
X55882Y-43402D01*
X55882Y-43402D01*
X55882Y-43402D01*
X55953Y-43295D01*
X55978Y-43170D01*
X55978Y-43170D01*
X55978Y-42615D01*
X56008Y-42655D01*
X56323Y-42842D01*
X56440Y-42874D01*
X56587Y-42831D01*
X56587Y-41750D01*
X56579Y-41750D01*
X56579Y-41650D01*
X56587Y-41650D01*
X56587Y-40568D01*
X56440Y-40525D01*
X56323Y-40557D01*
X56008Y-40744D01*
X55970Y-40795D01*
X55953Y-40712D01*
X55953Y-40712D01*
X55882Y-40605D01*
X55041Y-39764D01*
X55243Y-39765D01*
X55437Y-39685D01*
X55584Y-39537D01*
X55640Y-39404D01*
X55694Y-39537D01*
X55842Y-39684D01*
X56035Y-39764D01*
X56243Y-39765D01*
X56437Y-39685D01*
X56532Y-39590D01*
X56765Y-39590D01*
X57560Y-40384D01*
X57560Y-40930D01*
X57586Y-41063D01*
X57662Y-41177D01*
X58022Y-41537D01*
X58022Y-41537D01*
X58136Y-41613D01*
X58269Y-41639D01*
X58270Y-41640D01*
X59295Y-41640D01*
X60571Y-42915D01*
X60571Y-47719D01*
X60597Y-47852D01*
X60673Y-47966D01*
X62349Y-49642D01*
X62349Y-49642D01*
X62463Y-49718D01*
X62597Y-49745D01*
X64592Y-49745D01*
X64687Y-49839D01*
X64880Y-49919D01*
X65088Y-49920D01*
X65282Y-49840D01*
X65382Y-49740D01*
X65484Y-49740D01*
X65515Y-49785D01*
X65696Y-49907D01*
X65911Y-49950D01*
X66218Y-49950D01*
X66433Y-49907D01*
X66614Y-49785D01*
X66736Y-49604D01*
X66778Y-49390D01*
X66740Y-49199D01*
X67905Y-49199D01*
X68023Y-49175D01*
X68023Y-49175D01*
X68123Y-49108D01*
X68487Y-48744D01*
X68515Y-48785D01*
X68581Y-48829D01*
X68565Y-48829D01*
X68473Y-48867D01*
X68403Y-48938D01*
X68365Y-49030D01*
X68364Y-49129D01*
X68364Y-49749D01*
X68402Y-49841D01*
X68473Y-49911D01*
X68565Y-49949D01*
X68664Y-49950D01*
X69564Y-49950D01*
X69656Y-49912D01*
X69726Y-49841D01*
X69764Y-49749D01*
X69765Y-49683D01*
X69777Y-49687D01*
X70074Y-49390D01*
X69777Y-49092D01*
X69765Y-49096D01*
X69765Y-49030D01*
X69727Y-48938D01*
X69656Y-48868D01*
X69564Y-48830D01*
X69548Y-48830D01*
X69614Y-48785D01*
X69672Y-48699D01*
X69711Y-48699D01*
X69847Y-48834D01*
X69973Y-48887D01*
X69872Y-48929D01*
X69847Y-49022D01*
X70145Y-49319D01*
X70442Y-49022D01*
X70417Y-48929D01*
X70307Y-48890D01*
X70442Y-48835D01*
X70589Y-48687D01*
X70669Y-48494D01*
X70670Y-48286D01*
X70590Y-48093D01*
X70442Y-47945D01*
X70249Y-47865D01*
X70042Y-47864D01*
X70198Y-47709D01*
X71432Y-47709D01*
X71433Y-47711D01*
X71588Y-47865D01*
X71669Y-47899D01*
X71588Y-47933D01*
X71434Y-48088D01*
X71350Y-48290D01*
X71349Y-48508D01*
X71433Y-48711D01*
X71588Y-48865D01*
X71790Y-48949D01*
X72008Y-48950D01*
X72211Y-48866D01*
X72365Y-48711D01*
X72399Y-48630D01*
X72433Y-48711D01*
X72588Y-48865D01*
X72790Y-48949D01*
X73008Y-48950D01*
X73211Y-48866D01*
X73365Y-48711D01*
X73449Y-48509D01*
X73450Y-48291D01*
X73366Y-48088D01*
X73211Y-47934D01*
X73130Y-47900D01*
X73211Y-47866D01*
X73365Y-47711D01*
X73449Y-47509D01*
X73450Y-47291D01*
X73366Y-47088D01*
X73211Y-46934D01*
X73130Y-46900D01*
X73211Y-46866D01*
X73365Y-46711D01*
X73449Y-46509D01*
X73450Y-46291D01*
X73366Y-46088D01*
X73211Y-45934D01*
X73130Y-45900D01*
X73211Y-45866D01*
X73365Y-45711D01*
X73449Y-45509D01*
X73450Y-45291D01*
X73366Y-45088D01*
X73211Y-44934D01*
X73130Y-44900D01*
X73211Y-44866D01*
X73365Y-44711D01*
X73449Y-44509D01*
X73450Y-44291D01*
X73366Y-44088D01*
X73211Y-43934D01*
X73130Y-43900D01*
X73211Y-43866D01*
X73365Y-43711D01*
X73449Y-43509D01*
X73450Y-43291D01*
X73366Y-43088D01*
X73211Y-42934D01*
X73130Y-42900D01*
X73211Y-42866D01*
X73365Y-42711D01*
X73449Y-42509D01*
X73450Y-42291D01*
X73366Y-42088D01*
X73211Y-41934D01*
X73130Y-41900D01*
X73211Y-41866D01*
X73365Y-41711D01*
X73449Y-41509D01*
X73450Y-41291D01*
X73366Y-41088D01*
X73211Y-40934D01*
X73130Y-40900D01*
X73211Y-40866D01*
X73365Y-40711D01*
X73449Y-40509D01*
X73450Y-40291D01*
X73366Y-40088D01*
X73211Y-39934D01*
X73130Y-39900D01*
X73211Y-39866D01*
X73365Y-39711D01*
X73449Y-39509D01*
X73450Y-39291D01*
X73366Y-39088D01*
X73211Y-38934D01*
X73136Y-38902D01*
X73187Y-38881D01*
X73215Y-38785D01*
X72900Y-38470D01*
X72584Y-38785D01*
X72612Y-38881D01*
X72667Y-38900D01*
X72588Y-38933D01*
X72434Y-39088D01*
X72400Y-39169D01*
X72366Y-39088D01*
X72211Y-38934D01*
X72130Y-38900D01*
X72211Y-38866D01*
X72365Y-38711D01*
X72397Y-38636D01*
X72418Y-38687D01*
X72514Y-38715D01*
X72829Y-38400D01*
X72514Y-38084D01*
X72418Y-38112D01*
X72399Y-38167D01*
X72366Y-38088D01*
X72211Y-37934D01*
X72130Y-37900D01*
X72211Y-37866D01*
X72365Y-37711D01*
X72399Y-37630D01*
X72433Y-37711D01*
X72588Y-37865D01*
X72663Y-37897D01*
X72612Y-37918D01*
X72584Y-38014D01*
X72900Y-38329D01*
X73215Y-38014D01*
X73187Y-37918D01*
X73132Y-37899D01*
X73211Y-37866D01*
X73365Y-37711D01*
X73449Y-37509D01*
X73450Y-37291D01*
X73366Y-37088D01*
X73211Y-36934D01*
X73130Y-36900D01*
X73211Y-36866D01*
X73365Y-36711D01*
X73449Y-36509D01*
X73450Y-36291D01*
X73366Y-36088D01*
X73320Y-36042D01*
X73320Y-36042D01*
X73312Y-36003D01*
X73215Y-35859D01*
X73215Y-35859D01*
X72730Y-35374D01*
X72586Y-35277D01*
X72415Y-35243D01*
X68304Y-35243D01*
X68233Y-35213D01*
X68047Y-35213D01*
X67999Y-35233D01*
X58076Y-35233D01*
X58076Y-32050D01*
X58076Y-31873D01*
X57561Y-31873D01*
X57561Y-32500D01*
X57648Y-32548D01*
X57681Y-32541D01*
X57875Y-32435D01*
X58013Y-32262D01*
X58076Y-32050D01*
X58076Y-35233D01*
X55940Y-35233D01*
X55335Y-35233D01*
X54910Y-34808D01*
X54910Y-33375D01*
X57265Y-33375D01*
X57265Y-32683D01*
X57271Y-32673D01*
X57302Y-32520D01*
X57341Y-32541D01*
X57373Y-32548D01*
X57461Y-32500D01*
X57461Y-31873D01*
X57453Y-31873D01*
X57453Y-31773D01*
X57461Y-31773D01*
X57461Y-31765D01*
X57561Y-31765D01*
X57561Y-31773D01*
X58076Y-31773D01*
X58076Y-31596D01*
X58013Y-31383D01*
X58006Y-31375D01*
X73479Y-31375D01*
M02*
