M48
;DRILL file {Pcbnew (2013-04-19 BZR 4011)-stable} date 14/06/2013 21:14:31
;FORMAT={-:-/ absolute / metric / decimal}
FMAT,2
METRIC,TZ
T1C0.635
T2C0.813
T3C1.000
T4C1.016
T5C2.000
T6C3.048
%
G90
G05
M71
T1
X156.858Y-119.088
X168.986Y-101.575
X173.076Y-90.627
T2
X138.252Y-114.783
X138.252Y-122.403
X140.056Y-99.67
X140.792Y-114.783
X140.792Y-122.403
X142.596Y-99.67
X143.332Y-114.783
X143.332Y-122.403
X145.872Y-114.783
X145.872Y-122.403
X149.161Y-99.085
X151.701Y-99.085
X154.203Y-98.755
X154.203Y-103.835
X156.858Y-98.717
X156.858Y-106.337
X159.398Y-98.717
X159.398Y-106.337
X159.969Y-110.223
X159.969Y-112.763
X161.938Y-98.717
X161.938Y-106.337
X162.585Y-128.27
X163.17Y-110.198
X163.182Y-120.345
X164.478Y-98.717
X164.478Y-106.337
X165.062Y-122.923
X165.062Y-125.463
X165.71Y-110.198
X165.722Y-120.345
X167.665Y-128.27
X167.805Y-105.131
X167.805Y-107.671
X167.805Y-110.211
X167.805Y-112.751
X167.805Y-115.291
X167.805Y-117.831
X167.805Y-120.371
X167.805Y-122.911
X167.805Y-125.451
X174.117Y-101.028
X175.412Y-98.704
X175.425Y-105.131
X175.425Y-107.671
X175.425Y-110.211
X175.425Y-112.751
X175.425Y-115.291
X175.425Y-117.831
X175.425Y-120.371
X175.425Y-122.911
X175.425Y-125.451
X178.168Y-122.911
X178.168Y-125.451
X179.197Y-101.028
X179.197Y-106.718
X179.197Y-111.798
X180.492Y-98.704
T3
X135.938Y-80.811
X138.338Y-82.481
X138.508Y-80.461
X143.508Y-80.461
X143.658Y-82.441
X146.078Y-80.831
T4
X138.252Y-112.245
X138.252Y-126.606
X140.792Y-112.245
X140.792Y-126.606
X143.332Y-112.245
X145.872Y-112.245
X146.025Y-126.594
X148.565Y-126.594
X149.161Y-102.476
X151.701Y-102.476
X159.271Y-96.393
X160.668Y-93.853
X162.065Y-96.393
X163.462Y-93.853
X164.732Y-96.393
X166.129Y-93.853
X167.526Y-96.393
X168.923Y-93.853
X170.32Y-96.393
X182.626Y-92.456
X182.626Y-94.996
X182.626Y-97.536
X182.626Y-100.076
X182.626Y-102.616
X182.626Y-105.156
X182.626Y-107.696
X182.626Y-110.236
X182.626Y-112.776
X182.626Y-115.316
X182.626Y-117.856
X182.626Y-120.396
X182.626Y-122.936
X185.166Y-92.456
X185.166Y-94.996
X185.166Y-97.536
X185.166Y-100.076
X185.166Y-102.616
X185.166Y-105.156
X185.166Y-107.696
X185.166Y-110.236
X185.166Y-112.776
X185.166Y-115.316
X185.166Y-117.856
X185.166Y-120.396
X185.166Y-122.936
T6
X150.Y-115.316
X152.159Y-93.853
X177.559Y-93.853
T5
X134.858Y-105.648G85X134.858Y-106.188
G05
X138.858Y-105.648G85X138.858Y-106.188
G05
X143.858Y-105.648G85X143.858Y-106.188
G05
T0
M30
