G04 (created by PCBNEW (2013-04-19 BZR 4011)-stable) date 13/06/2013 21:19:41*
%MOIN*%
G04 Gerber Fmt 3.4, Leading zero omitted, Abs format*
%FSLAX34Y34*%
G01*
G70*
G90*
G04 APERTURE LIST*
%ADD10C,0.006*%
%ADD11C,0.011811*%
%ADD12C,0.012*%
%ADD13C,0.008*%
%ADD14C,0.015*%
%ADD15C,0.00590551*%
%ADD16C,0.01125*%
%ADD17C,0.01*%
G04 APERTURE END LIST*
G54D10*
G54D11*
X59356Y-49493D02*
X59413Y-49493D01*
X59469Y-49521D01*
X59497Y-49549D01*
X59525Y-49605D01*
X59553Y-49718D01*
X59553Y-49859D01*
X59525Y-49971D01*
X59497Y-50027D01*
X59469Y-50055D01*
X59413Y-50084D01*
X59356Y-50084D01*
X59300Y-50055D01*
X59272Y-50027D01*
X59244Y-49971D01*
X59216Y-49859D01*
X59216Y-49718D01*
X59244Y-49605D01*
X59272Y-49549D01*
X59300Y-49521D01*
X59356Y-49493D01*
X56400Y-49829D02*
X56849Y-49829D01*
X56625Y-50054D02*
X56625Y-49604D01*
X53242Y-35909D02*
X53045Y-35627D01*
X52905Y-35909D02*
X52905Y-35318D01*
X53130Y-35318D01*
X53186Y-35346D01*
X53214Y-35374D01*
X53242Y-35430D01*
X53242Y-35515D01*
X53214Y-35571D01*
X53186Y-35599D01*
X53130Y-35627D01*
X52905Y-35627D01*
X53748Y-35909D02*
X53748Y-35599D01*
X53720Y-35543D01*
X53664Y-35515D01*
X53552Y-35515D01*
X53495Y-35543D01*
X53748Y-35880D02*
X53692Y-35909D01*
X53552Y-35909D01*
X53495Y-35880D01*
X53467Y-35824D01*
X53467Y-35768D01*
X53495Y-35712D01*
X53552Y-35684D01*
X53692Y-35684D01*
X53748Y-35655D01*
X53973Y-35318D02*
X54367Y-35318D01*
X53973Y-35909D01*
X54367Y-35909D01*
X54592Y-35909D02*
X54592Y-35318D01*
X54592Y-35543D02*
X54648Y-35515D01*
X54761Y-35515D01*
X54817Y-35543D01*
X54845Y-35571D01*
X54873Y-35627D01*
X54873Y-35796D01*
X54845Y-35852D01*
X54817Y-35880D01*
X54761Y-35909D01*
X54648Y-35909D01*
X54592Y-35880D01*
X55070Y-35515D02*
X55211Y-35909D01*
X55351Y-35515D02*
X55211Y-35909D01*
X55155Y-36049D01*
X55126Y-36077D01*
X55070Y-36105D01*
X55773Y-35599D02*
X55858Y-35627D01*
X55886Y-35655D01*
X55914Y-35712D01*
X55914Y-35796D01*
X55886Y-35852D01*
X55858Y-35880D01*
X55801Y-35909D01*
X55576Y-35909D01*
X55576Y-35318D01*
X55773Y-35318D01*
X55829Y-35346D01*
X55858Y-35374D01*
X55886Y-35430D01*
X55886Y-35487D01*
X55858Y-35543D01*
X55829Y-35571D01*
X55773Y-35599D01*
X55576Y-35599D01*
X56251Y-35909D02*
X56195Y-35880D01*
X56167Y-35852D01*
X56139Y-35796D01*
X56139Y-35627D01*
X56167Y-35571D01*
X56195Y-35543D01*
X56251Y-35515D01*
X56336Y-35515D01*
X56392Y-35543D01*
X56420Y-35571D01*
X56448Y-35627D01*
X56448Y-35796D01*
X56420Y-35852D01*
X56392Y-35880D01*
X56336Y-35909D01*
X56251Y-35909D01*
X56954Y-35909D02*
X56954Y-35599D01*
X56926Y-35543D01*
X56870Y-35515D01*
X56757Y-35515D01*
X56701Y-35543D01*
X56954Y-35880D02*
X56898Y-35909D01*
X56757Y-35909D01*
X56701Y-35880D01*
X56673Y-35824D01*
X56673Y-35768D01*
X56701Y-35712D01*
X56757Y-35684D01*
X56898Y-35684D01*
X56954Y-35655D01*
X57236Y-35909D02*
X57236Y-35515D01*
X57236Y-35627D02*
X57264Y-35571D01*
X57292Y-35543D01*
X57348Y-35515D01*
X57404Y-35515D01*
X57854Y-35909D02*
X57854Y-35318D01*
X57854Y-35880D02*
X57798Y-35909D01*
X57685Y-35909D01*
X57629Y-35880D01*
X57601Y-35852D01*
X57573Y-35796D01*
X57573Y-35627D01*
X57601Y-35571D01*
X57629Y-35543D01*
X57685Y-35515D01*
X57798Y-35515D01*
X57854Y-35543D01*
X53439Y-36853D02*
X53439Y-36263D01*
X53580Y-36263D01*
X53664Y-36291D01*
X53720Y-36347D01*
X53748Y-36403D01*
X53777Y-36516D01*
X53777Y-36600D01*
X53748Y-36713D01*
X53720Y-36769D01*
X53664Y-36825D01*
X53580Y-36853D01*
X53439Y-36853D01*
X54114Y-36853D02*
X54058Y-36825D01*
X54030Y-36797D01*
X54002Y-36741D01*
X54002Y-36572D01*
X54030Y-36516D01*
X54058Y-36488D01*
X54114Y-36460D01*
X54198Y-36460D01*
X54255Y-36488D01*
X54283Y-36516D01*
X54311Y-36572D01*
X54311Y-36741D01*
X54283Y-36797D01*
X54255Y-36825D01*
X54198Y-36853D01*
X54114Y-36853D01*
X54564Y-36853D02*
X54564Y-36460D01*
X54564Y-36516D02*
X54592Y-36488D01*
X54648Y-36460D01*
X54733Y-36460D01*
X54789Y-36488D01*
X54817Y-36544D01*
X54817Y-36853D01*
X54817Y-36544D02*
X54845Y-36488D01*
X54901Y-36460D01*
X54986Y-36460D01*
X55042Y-36488D01*
X55070Y-36544D01*
X55070Y-36853D01*
X55436Y-36853D02*
X55380Y-36825D01*
X55351Y-36797D01*
X55323Y-36741D01*
X55323Y-36572D01*
X55351Y-36516D01*
X55380Y-36488D01*
X55436Y-36460D01*
X55520Y-36460D01*
X55576Y-36488D01*
X55604Y-36516D01*
X55633Y-36572D01*
X55633Y-36741D01*
X55604Y-36797D01*
X55576Y-36825D01*
X55520Y-36853D01*
X55436Y-36853D01*
X56223Y-36797D02*
X56195Y-36825D01*
X56111Y-36853D01*
X56054Y-36853D01*
X55970Y-36825D01*
X55914Y-36769D01*
X55886Y-36713D01*
X55858Y-36600D01*
X55858Y-36516D01*
X55886Y-36403D01*
X55914Y-36347D01*
X55970Y-36291D01*
X56054Y-36263D01*
X56111Y-36263D01*
X56195Y-36291D01*
X56223Y-36319D01*
X56448Y-36685D02*
X56729Y-36685D01*
X56392Y-36853D02*
X56589Y-36263D01*
X56786Y-36853D01*
X56982Y-36853D02*
X56982Y-36263D01*
X57320Y-36853D01*
X57320Y-36263D01*
X54536Y-37405D02*
X54676Y-37798D01*
X54817Y-37405D01*
X55351Y-37798D02*
X55014Y-37798D01*
X55183Y-37798D02*
X55183Y-37208D01*
X55126Y-37292D01*
X55070Y-37348D01*
X55014Y-37376D01*
X55604Y-37742D02*
X55633Y-37770D01*
X55604Y-37798D01*
X55576Y-37770D01*
X55604Y-37742D01*
X55604Y-37798D01*
X55998Y-37208D02*
X56054Y-37208D01*
X56111Y-37236D01*
X56139Y-37264D01*
X56167Y-37320D01*
X56195Y-37433D01*
X56195Y-37573D01*
X56167Y-37686D01*
X56139Y-37742D01*
X56111Y-37770D01*
X56054Y-37798D01*
X55998Y-37798D01*
X55942Y-37770D01*
X55914Y-37742D01*
X55886Y-37686D01*
X55858Y-37573D01*
X55858Y-37433D01*
X55886Y-37320D01*
X55914Y-37264D01*
X55942Y-37236D01*
X55998Y-37208D01*
G54D12*
X58505Y-38350D02*
X71305Y-38350D01*
X71305Y-38350D02*
X71305Y-31350D01*
X71305Y-31350D02*
X58505Y-31350D01*
X58505Y-31350D02*
X58505Y-38350D01*
X61305Y-31350D02*
X61305Y-34350D01*
X61305Y-34350D02*
X68505Y-34350D01*
X68505Y-34350D02*
X68505Y-31350D01*
X61905Y-31350D02*
X61905Y-27950D01*
X61905Y-27950D02*
X67905Y-27950D01*
X67905Y-27950D02*
X67905Y-31350D01*
G54D13*
X71400Y-35900D02*
X71400Y-48900D01*
X73400Y-48900D02*
X73400Y-35900D01*
X73400Y-35900D02*
X71400Y-35900D01*
X71400Y-48900D02*
X73400Y-48900D01*
G54D14*
X59955Y-45400D02*
G75*
G03X59955Y-45400I-900J0D01*
G74*
G01*
X56140Y-39240D02*
X55140Y-39240D01*
X56699Y-39240D02*
G75*
G03X56699Y-39240I-559J0D01*
G74*
G01*
X62980Y-43395D02*
X62980Y-44395D01*
X63539Y-43395D02*
G75*
G03X63539Y-43395I-559J0D01*
G74*
G01*
X64985Y-49395D02*
X64985Y-48395D01*
X65544Y-49395D02*
G75*
G03X65544Y-49395I-559J0D01*
G74*
G01*
X64245Y-47380D02*
X65245Y-47380D01*
X64804Y-47380D02*
G75*
G03X64804Y-47380I-559J0D01*
G74*
G01*
X64240Y-43385D02*
X65240Y-43385D01*
X64799Y-43385D02*
G75*
G03X64799Y-43385I-559J0D01*
G74*
G01*
X70145Y-48390D02*
X70145Y-49390D01*
X70704Y-48390D02*
G75*
G03X70704Y-48390I-559J0D01*
G74*
G01*
X58725Y-39010D02*
X59725Y-39010D01*
X59284Y-39010D02*
G75*
G03X59284Y-39010I-559J0D01*
G74*
G01*
G54D10*
X58990Y-49340D02*
X58990Y-50340D01*
X58990Y-50340D02*
X56990Y-50340D01*
X56990Y-50340D02*
X56990Y-49340D01*
X56990Y-49340D02*
X58990Y-49340D01*
X58225Y-40845D02*
X58225Y-39845D01*
X58225Y-39845D02*
X60225Y-39845D01*
X60225Y-39845D02*
X60225Y-40845D01*
X60225Y-40845D02*
X58225Y-40845D01*
X70050Y-45765D02*
X69550Y-45265D01*
X69550Y-40765D02*
X70050Y-40265D01*
X71050Y-40265D02*
X71550Y-40765D01*
X71050Y-45765D02*
X71550Y-45265D01*
X69550Y-45265D02*
X69550Y-40765D01*
X70050Y-45765D02*
X71050Y-45765D01*
X71550Y-45265D02*
X71550Y-40765D01*
X71050Y-40265D02*
X70050Y-40265D01*
G54D14*
X53930Y-46190D02*
X54430Y-46190D01*
X54430Y-46190D02*
X54430Y-47190D01*
X54430Y-47190D02*
X53930Y-47190D01*
X53930Y-45690D02*
X57930Y-45690D01*
X57930Y-45690D02*
X57930Y-47690D01*
X57930Y-47690D02*
X53930Y-47690D01*
X53930Y-47690D02*
X53930Y-45690D01*
X61255Y-39865D02*
X61755Y-39865D01*
X61755Y-39865D02*
X61755Y-40865D01*
X61755Y-40865D02*
X61255Y-40865D01*
X61255Y-39365D02*
X65255Y-39365D01*
X65255Y-39365D02*
X65255Y-41365D01*
X65255Y-41365D02*
X61255Y-41365D01*
X61255Y-41365D02*
X61255Y-39365D01*
X67065Y-50390D02*
X67065Y-49890D01*
X67065Y-49890D02*
X68065Y-49890D01*
X68065Y-49890D02*
X68065Y-50390D01*
X66565Y-50390D02*
X66565Y-40390D01*
X66565Y-40390D02*
X68565Y-40390D01*
X68565Y-40390D02*
X68565Y-50390D01*
X68565Y-50390D02*
X66565Y-50390D01*
G54D12*
X66410Y-50900D02*
X63610Y-50900D01*
X63610Y-50900D02*
X63610Y-50100D01*
X63610Y-50100D02*
X66410Y-50100D01*
X66410Y-50100D02*
X66410Y-50900D01*
X66410Y-50700D02*
X66210Y-50900D01*
X60310Y-41280D02*
X60310Y-38480D01*
X60310Y-38480D02*
X61110Y-38480D01*
X61110Y-38480D02*
X61110Y-41280D01*
X61110Y-41280D02*
X60310Y-41280D01*
X60510Y-41280D02*
X60310Y-41080D01*
X68150Y-39375D02*
X70950Y-39375D01*
X70950Y-39375D02*
X70950Y-40175D01*
X70950Y-40175D02*
X68150Y-40175D01*
X68150Y-40175D02*
X68150Y-39375D01*
X68150Y-39575D02*
X68350Y-39375D01*
X68660Y-38460D02*
X71460Y-38460D01*
X71460Y-38460D02*
X71460Y-39260D01*
X71460Y-39260D02*
X68660Y-39260D01*
X68660Y-39260D02*
X68660Y-38460D01*
X68660Y-38660D02*
X68860Y-38460D01*
G54D10*
X53930Y-50345D02*
X53930Y-49345D01*
X53930Y-49345D02*
X55930Y-49345D01*
X55930Y-49345D02*
X55930Y-50345D01*
X55930Y-50345D02*
X53930Y-50345D01*
G54D14*
X52377Y-40007D02*
X52377Y-43400D01*
X52700Y-40000D02*
X52700Y-43400D01*
X57030Y-40000D02*
X57030Y-43400D01*
X52377Y-43400D02*
X57030Y-43400D01*
X52377Y-40000D02*
X57030Y-40000D01*
G54D15*
X58270Y-33358D02*
X58270Y-31327D01*
X58270Y-33358D02*
X52759Y-33358D01*
X52759Y-33358D02*
X52759Y-31327D01*
X52763Y-31327D02*
X58274Y-31327D01*
G54D12*
X71552Y-33492D02*
X71552Y-32892D01*
X71780Y-32892D01*
X71837Y-32921D01*
X71866Y-32950D01*
X71895Y-33007D01*
X71895Y-33092D01*
X71866Y-33150D01*
X71837Y-33178D01*
X71780Y-33207D01*
X71552Y-33207D01*
X72095Y-32892D02*
X72466Y-32892D01*
X72266Y-33121D01*
X72352Y-33121D01*
X72409Y-33150D01*
X72437Y-33178D01*
X72466Y-33235D01*
X72466Y-33378D01*
X72437Y-33435D01*
X72409Y-33464D01*
X72352Y-33492D01*
X72180Y-33492D01*
X72123Y-33464D01*
X72095Y-33435D01*
X64609Y-33365D02*
X64580Y-33394D01*
X64495Y-33422D01*
X64437Y-33422D01*
X64352Y-33394D01*
X64295Y-33337D01*
X64266Y-33280D01*
X64237Y-33165D01*
X64237Y-33080D01*
X64266Y-32965D01*
X64295Y-32908D01*
X64352Y-32851D01*
X64437Y-32822D01*
X64495Y-32822D01*
X64580Y-32851D01*
X64609Y-32880D01*
X64837Y-33251D02*
X65123Y-33251D01*
X64780Y-33422D02*
X64980Y-32822D01*
X65180Y-33422D01*
X65380Y-33422D02*
X65380Y-32822D01*
X65723Y-33422D01*
X65723Y-32822D01*
G54D13*
X72104Y-35761D02*
X72104Y-35361D01*
X72257Y-35361D01*
X72295Y-35380D01*
X72314Y-35400D01*
X72333Y-35438D01*
X72333Y-35495D01*
X72314Y-35533D01*
X72295Y-35552D01*
X72257Y-35571D01*
X72104Y-35571D01*
X72714Y-35761D02*
X72485Y-35761D01*
X72600Y-35761D02*
X72600Y-35361D01*
X72561Y-35419D01*
X72523Y-35457D01*
X72485Y-35476D01*
X54096Y-39432D02*
X53930Y-39170D01*
X53810Y-39432D02*
X53810Y-38882D01*
X54001Y-38882D01*
X54049Y-38908D01*
X54072Y-38935D01*
X54096Y-38987D01*
X54096Y-39065D01*
X54072Y-39118D01*
X54049Y-39144D01*
X54001Y-39170D01*
X53810Y-39170D01*
X54263Y-38882D02*
X54596Y-38882D01*
X54382Y-39432D01*
X61776Y-43647D02*
X61610Y-43385D01*
X61490Y-43647D02*
X61490Y-43097D01*
X61681Y-43097D01*
X61729Y-43123D01*
X61752Y-43150D01*
X61776Y-43202D01*
X61776Y-43280D01*
X61752Y-43333D01*
X61729Y-43359D01*
X61681Y-43385D01*
X61490Y-43385D01*
X62229Y-43097D02*
X61990Y-43097D01*
X61967Y-43359D01*
X61990Y-43333D01*
X62038Y-43307D01*
X62157Y-43307D01*
X62205Y-43333D01*
X62229Y-43359D01*
X62252Y-43411D01*
X62252Y-43542D01*
X62229Y-43595D01*
X62205Y-43621D01*
X62157Y-43647D01*
X62038Y-43647D01*
X61990Y-43621D01*
X61967Y-43595D01*
X63766Y-49642D02*
X63600Y-49380D01*
X63480Y-49642D02*
X63480Y-49092D01*
X63671Y-49092D01*
X63719Y-49118D01*
X63742Y-49145D01*
X63766Y-49197D01*
X63766Y-49275D01*
X63742Y-49328D01*
X63719Y-49354D01*
X63671Y-49380D01*
X63480Y-49380D01*
X63933Y-49092D02*
X64242Y-49092D01*
X64076Y-49302D01*
X64147Y-49302D01*
X64195Y-49328D01*
X64219Y-49354D01*
X64242Y-49406D01*
X64242Y-49537D01*
X64219Y-49590D01*
X64195Y-49616D01*
X64147Y-49642D01*
X64004Y-49642D01*
X63957Y-49616D01*
X63933Y-49590D01*
X63026Y-47662D02*
X62860Y-47400D01*
X62740Y-47662D02*
X62740Y-47112D01*
X62931Y-47112D01*
X62979Y-47138D01*
X63002Y-47165D01*
X63026Y-47217D01*
X63026Y-47295D01*
X63002Y-47348D01*
X62979Y-47374D01*
X62931Y-47400D01*
X62740Y-47400D01*
X63217Y-47165D02*
X63240Y-47138D01*
X63288Y-47112D01*
X63407Y-47112D01*
X63455Y-47138D01*
X63479Y-47165D01*
X63502Y-47217D01*
X63502Y-47269D01*
X63479Y-47348D01*
X63193Y-47662D01*
X63502Y-47662D01*
X64161Y-44637D02*
X63995Y-44375D01*
X63875Y-44637D02*
X63875Y-44087D01*
X64066Y-44087D01*
X64114Y-44113D01*
X64137Y-44140D01*
X64161Y-44192D01*
X64161Y-44270D01*
X64137Y-44323D01*
X64114Y-44349D01*
X64066Y-44375D01*
X63875Y-44375D01*
X64637Y-44637D02*
X64352Y-44637D01*
X64495Y-44637D02*
X64495Y-44087D01*
X64447Y-44166D01*
X64399Y-44218D01*
X64352Y-44244D01*
X70176Y-47682D02*
X70010Y-47420D01*
X69890Y-47682D02*
X69890Y-47132D01*
X70081Y-47132D01*
X70129Y-47158D01*
X70152Y-47185D01*
X70176Y-47237D01*
X70176Y-47315D01*
X70152Y-47368D01*
X70129Y-47394D01*
X70081Y-47420D01*
X69890Y-47420D01*
X70605Y-47315D02*
X70605Y-47682D01*
X70486Y-47106D02*
X70367Y-47499D01*
X70676Y-47499D01*
X57506Y-39212D02*
X57340Y-38950D01*
X57220Y-39212D02*
X57220Y-38662D01*
X57411Y-38662D01*
X57459Y-38688D01*
X57482Y-38715D01*
X57506Y-38767D01*
X57506Y-38845D01*
X57482Y-38898D01*
X57459Y-38924D01*
X57411Y-38950D01*
X57220Y-38950D01*
X57935Y-38662D02*
X57840Y-38662D01*
X57792Y-38688D01*
X57768Y-38715D01*
X57720Y-38793D01*
X57697Y-38898D01*
X57697Y-39107D01*
X57720Y-39160D01*
X57744Y-39186D01*
X57792Y-39212D01*
X57887Y-39212D01*
X57935Y-39186D01*
X57959Y-39160D01*
X57982Y-39107D01*
X57982Y-38976D01*
X57959Y-38924D01*
X57935Y-38898D01*
X57887Y-38872D01*
X57792Y-38872D01*
X57744Y-38898D01*
X57720Y-38924D01*
X57697Y-38976D01*
G54D10*
X58443Y-49171D02*
X58443Y-48871D01*
X58557Y-48871D01*
X58586Y-48885D01*
X58600Y-48900D01*
X58615Y-48928D01*
X58615Y-48971D01*
X58600Y-49000D01*
X58586Y-49014D01*
X58557Y-49028D01*
X58443Y-49028D01*
X58886Y-48871D02*
X58743Y-48871D01*
X58729Y-49014D01*
X58743Y-49000D01*
X58772Y-48985D01*
X58843Y-48985D01*
X58872Y-49000D01*
X58886Y-49014D01*
X58900Y-49042D01*
X58900Y-49114D01*
X58886Y-49142D01*
X58872Y-49157D01*
X58843Y-49171D01*
X58772Y-49171D01*
X58743Y-49157D01*
X58729Y-49142D01*
X57291Y-50776D02*
X57191Y-50633D01*
X57120Y-50776D02*
X57120Y-50476D01*
X57234Y-50476D01*
X57262Y-50490D01*
X57277Y-50505D01*
X57291Y-50533D01*
X57291Y-50576D01*
X57277Y-50605D01*
X57262Y-50619D01*
X57234Y-50633D01*
X57120Y-50633D01*
X57377Y-50476D02*
X57548Y-50476D01*
X57462Y-50776D02*
X57462Y-50476D01*
X57820Y-50747D02*
X57805Y-50762D01*
X57762Y-50776D01*
X57734Y-50776D01*
X57691Y-50762D01*
X57662Y-50733D01*
X57648Y-50705D01*
X57634Y-50647D01*
X57634Y-50605D01*
X57648Y-50547D01*
X57662Y-50519D01*
X57691Y-50490D01*
X57734Y-50476D01*
X57762Y-50476D01*
X57805Y-50490D01*
X57820Y-50505D01*
X58277Y-50619D02*
X58320Y-50633D01*
X58334Y-50647D01*
X58348Y-50676D01*
X58348Y-50719D01*
X58334Y-50747D01*
X58320Y-50762D01*
X58291Y-50776D01*
X58177Y-50776D01*
X58177Y-50476D01*
X58277Y-50476D01*
X58305Y-50490D01*
X58320Y-50505D01*
X58334Y-50533D01*
X58334Y-50562D01*
X58320Y-50590D01*
X58305Y-50605D01*
X58277Y-50619D01*
X58177Y-50619D01*
X58605Y-50776D02*
X58605Y-50619D01*
X58591Y-50590D01*
X58562Y-50576D01*
X58505Y-50576D01*
X58477Y-50590D01*
X58605Y-50762D02*
X58577Y-50776D01*
X58505Y-50776D01*
X58477Y-50762D01*
X58462Y-50733D01*
X58462Y-50705D01*
X58477Y-50676D01*
X58505Y-50662D01*
X58577Y-50662D01*
X58605Y-50647D01*
X58705Y-50576D02*
X58820Y-50576D01*
X58748Y-50476D02*
X58748Y-50733D01*
X58762Y-50762D01*
X58791Y-50776D01*
X58820Y-50776D01*
X58920Y-50747D02*
X58934Y-50762D01*
X58920Y-50776D01*
X58905Y-50762D01*
X58920Y-50747D01*
X58920Y-50776D01*
X57510Y-40181D02*
X57510Y-40395D01*
X57495Y-40438D01*
X57467Y-40467D01*
X57424Y-40481D01*
X57395Y-40481D01*
X57652Y-40481D02*
X57652Y-40181D01*
X57767Y-40181D01*
X57795Y-40195D01*
X57810Y-40210D01*
X57824Y-40238D01*
X57824Y-40281D01*
X57810Y-40310D01*
X57795Y-40324D01*
X57767Y-40338D01*
X57652Y-40338D01*
X58110Y-40481D02*
X57938Y-40481D01*
X58024Y-40481D02*
X58024Y-40181D01*
X57995Y-40224D01*
X57967Y-40252D01*
X57938Y-40267D01*
X58241Y-41252D02*
X58227Y-41267D01*
X58184Y-41281D01*
X58155Y-41281D01*
X58112Y-41267D01*
X58084Y-41238D01*
X58070Y-41210D01*
X58055Y-41152D01*
X58055Y-41110D01*
X58070Y-41052D01*
X58084Y-41024D01*
X58112Y-40995D01*
X58155Y-40981D01*
X58184Y-40981D01*
X58227Y-40995D01*
X58241Y-41010D01*
X58498Y-41281D02*
X58498Y-41124D01*
X58484Y-41095D01*
X58455Y-41081D01*
X58398Y-41081D01*
X58370Y-41095D01*
X58498Y-41267D02*
X58470Y-41281D01*
X58398Y-41281D01*
X58370Y-41267D01*
X58355Y-41238D01*
X58355Y-41210D01*
X58370Y-41181D01*
X58398Y-41167D01*
X58470Y-41167D01*
X58498Y-41152D01*
X58641Y-41081D02*
X58641Y-41281D01*
X58641Y-41110D02*
X58655Y-41095D01*
X58684Y-41081D01*
X58727Y-41081D01*
X58755Y-41095D01*
X58770Y-41124D01*
X58770Y-41281D01*
X59098Y-40981D02*
X59270Y-40981D01*
X59184Y-41281D02*
X59184Y-40981D01*
X59484Y-41267D02*
X59455Y-41281D01*
X59398Y-41281D01*
X59370Y-41267D01*
X59355Y-41238D01*
X59355Y-41124D01*
X59370Y-41095D01*
X59398Y-41081D01*
X59455Y-41081D01*
X59484Y-41095D01*
X59498Y-41124D01*
X59498Y-41152D01*
X59355Y-41181D01*
X59627Y-41281D02*
X59627Y-41081D01*
X59627Y-41138D02*
X59641Y-41110D01*
X59655Y-41095D01*
X59684Y-41081D01*
X59712Y-41081D01*
X59812Y-41281D02*
X59812Y-41081D01*
X59812Y-41110D02*
X59827Y-41095D01*
X59855Y-41081D01*
X59898Y-41081D01*
X59927Y-41095D01*
X59941Y-41124D01*
X59941Y-41281D01*
X59941Y-41124D02*
X59955Y-41095D01*
X59984Y-41081D01*
X60027Y-41081D01*
X60055Y-41095D01*
X60070Y-41124D01*
X60070Y-41281D01*
X70155Y-42752D02*
X70488Y-43202D01*
X70488Y-42752D02*
X70155Y-43202D01*
X70940Y-43202D02*
X70655Y-43202D01*
X70798Y-43202D02*
X70798Y-42752D01*
X70750Y-42816D01*
X70702Y-42859D01*
X70655Y-42880D01*
G54D16*
X55505Y-47013D02*
X55505Y-46313D01*
X55977Y-46946D02*
X55955Y-46980D01*
X55891Y-47013D01*
X55848Y-47013D01*
X55784Y-46980D01*
X55741Y-46913D01*
X55720Y-46846D01*
X55698Y-46713D01*
X55698Y-46613D01*
X55720Y-46480D01*
X55741Y-46413D01*
X55784Y-46346D01*
X55848Y-46313D01*
X55891Y-46313D01*
X55955Y-46346D01*
X55977Y-46380D01*
X56127Y-46313D02*
X56405Y-46313D01*
X56255Y-46580D01*
X56320Y-46580D01*
X56362Y-46613D01*
X56384Y-46646D01*
X56405Y-46713D01*
X56405Y-46880D01*
X56384Y-46946D01*
X56362Y-46980D01*
X56320Y-47013D01*
X56191Y-47013D01*
X56148Y-46980D01*
X56127Y-46946D01*
G54D12*
G54D16*
X62800Y-40783D02*
X62800Y-40083D01*
X63272Y-40716D02*
X63250Y-40750D01*
X63186Y-40783D01*
X63143Y-40783D01*
X63079Y-40750D01*
X63036Y-40683D01*
X63015Y-40616D01*
X62993Y-40483D01*
X62993Y-40383D01*
X63015Y-40250D01*
X63036Y-40183D01*
X63079Y-40116D01*
X63143Y-40083D01*
X63186Y-40083D01*
X63250Y-40116D01*
X63272Y-40150D01*
X63443Y-40150D02*
X63465Y-40116D01*
X63507Y-40083D01*
X63615Y-40083D01*
X63657Y-40116D01*
X63679Y-40150D01*
X63700Y-40216D01*
X63700Y-40283D01*
X63679Y-40383D01*
X63422Y-40783D01*
X63700Y-40783D01*
G54D12*
G54D16*
X67190Y-45758D02*
X67190Y-45058D01*
X67662Y-45691D02*
X67640Y-45725D01*
X67576Y-45758D01*
X67533Y-45758D01*
X67469Y-45725D01*
X67426Y-45658D01*
X67405Y-45591D01*
X67383Y-45458D01*
X67383Y-45358D01*
X67405Y-45225D01*
X67426Y-45158D01*
X67469Y-45091D01*
X67533Y-45058D01*
X67576Y-45058D01*
X67640Y-45091D01*
X67662Y-45125D01*
X68090Y-45758D02*
X67833Y-45758D01*
X67962Y-45758D02*
X67962Y-45058D01*
X67919Y-45158D01*
X67876Y-45225D01*
X67833Y-45258D01*
G54D12*
G54D13*
X64943Y-50623D02*
X64924Y-50642D01*
X64867Y-50661D01*
X64829Y-50661D01*
X64771Y-50642D01*
X64733Y-50604D01*
X64714Y-50566D01*
X64695Y-50490D01*
X64695Y-50433D01*
X64714Y-50357D01*
X64733Y-50319D01*
X64771Y-50280D01*
X64829Y-50261D01*
X64867Y-50261D01*
X64924Y-50280D01*
X64943Y-50300D01*
X65324Y-50661D02*
X65095Y-50661D01*
X65210Y-50661D02*
X65210Y-50261D01*
X65171Y-50319D01*
X65133Y-50357D01*
X65095Y-50376D01*
X60833Y-39946D02*
X60852Y-39965D01*
X60871Y-40022D01*
X60871Y-40060D01*
X60852Y-40118D01*
X60814Y-40156D01*
X60776Y-40175D01*
X60700Y-40194D01*
X60643Y-40194D01*
X60567Y-40175D01*
X60529Y-40156D01*
X60490Y-40118D01*
X60471Y-40060D01*
X60471Y-40022D01*
X60490Y-39965D01*
X60510Y-39946D01*
X60510Y-39794D02*
X60490Y-39775D01*
X60471Y-39737D01*
X60471Y-39641D01*
X60490Y-39603D01*
X60510Y-39584D01*
X60548Y-39565D01*
X60586Y-39565D01*
X60643Y-39584D01*
X60871Y-39813D01*
X60871Y-39565D01*
X69483Y-39898D02*
X69464Y-39917D01*
X69407Y-39936D01*
X69369Y-39936D01*
X69311Y-39917D01*
X69273Y-39879D01*
X69254Y-39841D01*
X69235Y-39765D01*
X69235Y-39708D01*
X69254Y-39632D01*
X69273Y-39594D01*
X69311Y-39555D01*
X69369Y-39536D01*
X69407Y-39536D01*
X69464Y-39555D01*
X69483Y-39575D01*
X69826Y-39670D02*
X69826Y-39936D01*
X69730Y-39517D02*
X69635Y-39803D01*
X69883Y-39803D01*
X69993Y-38983D02*
X69974Y-39002D01*
X69917Y-39021D01*
X69879Y-39021D01*
X69821Y-39002D01*
X69783Y-38964D01*
X69764Y-38926D01*
X69745Y-38850D01*
X69745Y-38793D01*
X69764Y-38717D01*
X69783Y-38679D01*
X69821Y-38640D01*
X69879Y-38621D01*
X69917Y-38621D01*
X69974Y-38640D01*
X69993Y-38660D01*
X70126Y-38621D02*
X70374Y-38621D01*
X70240Y-38774D01*
X70298Y-38774D01*
X70336Y-38793D01*
X70355Y-38812D01*
X70374Y-38850D01*
X70374Y-38945D01*
X70355Y-38983D01*
X70336Y-39002D01*
X70298Y-39021D01*
X70183Y-39021D01*
X70145Y-39002D01*
X70126Y-38983D01*
G54D10*
X54687Y-48916D02*
X54887Y-49216D01*
X54887Y-48916D02*
X54687Y-49216D01*
X54987Y-48945D02*
X55001Y-48930D01*
X55030Y-48916D01*
X55101Y-48916D01*
X55130Y-48930D01*
X55144Y-48945D01*
X55158Y-48973D01*
X55158Y-49002D01*
X55144Y-49045D01*
X54972Y-49216D01*
X55158Y-49216D01*
G54D17*
X55429Y-43106D02*
X55429Y-42706D01*
X55582Y-42706D01*
X55620Y-42725D01*
X55639Y-42745D01*
X55658Y-42783D01*
X55658Y-42840D01*
X55639Y-42878D01*
X55620Y-42897D01*
X55582Y-42916D01*
X55429Y-42916D01*
X56001Y-42840D02*
X56001Y-43106D01*
X55905Y-42687D02*
X55810Y-42973D01*
X56058Y-42973D01*
X57532Y-42886D02*
X57304Y-42886D01*
X57418Y-42886D02*
X57418Y-42486D01*
X57380Y-42544D01*
X57342Y-42582D01*
X57304Y-42601D01*
X57970Y-42486D02*
X58066Y-42886D01*
X58142Y-42601D01*
X58218Y-42886D01*
X58313Y-42486D01*
X58466Y-42886D02*
X58466Y-42620D01*
X58466Y-42486D02*
X58447Y-42505D01*
X58466Y-42525D01*
X58485Y-42505D01*
X58466Y-42486D01*
X58466Y-42525D01*
X58656Y-42886D02*
X58656Y-42620D01*
X58656Y-42696D02*
X58675Y-42658D01*
X58694Y-42639D01*
X58732Y-42620D01*
X58770Y-42620D01*
X59056Y-42867D02*
X59018Y-42886D01*
X58942Y-42886D01*
X58904Y-42867D01*
X58885Y-42829D01*
X58885Y-42677D01*
X58904Y-42639D01*
X58942Y-42620D01*
X59018Y-42620D01*
X59056Y-42639D01*
X59075Y-42677D01*
X59075Y-42715D01*
X58885Y-42753D01*
G54D15*
X55214Y-34019D02*
X55214Y-33625D01*
X55364Y-33625D01*
X55401Y-33644D01*
X55420Y-33663D01*
X55439Y-33700D01*
X55439Y-33756D01*
X55420Y-33794D01*
X55401Y-33813D01*
X55364Y-33831D01*
X55214Y-33831D01*
X55589Y-33663D02*
X55608Y-33644D01*
X55645Y-33625D01*
X55739Y-33625D01*
X55776Y-33644D01*
X55795Y-33663D01*
X55814Y-33700D01*
X55814Y-33738D01*
X55795Y-33794D01*
X55570Y-34019D01*
X55814Y-34019D01*
X54890Y-33250D02*
X54890Y-32856D01*
X55040Y-32856D01*
X55077Y-32875D01*
X55096Y-32894D01*
X55115Y-32931D01*
X55115Y-32987D01*
X55096Y-33025D01*
X55077Y-33044D01*
X55040Y-33062D01*
X54890Y-33062D01*
X55340Y-33250D02*
X55302Y-33231D01*
X55284Y-33212D01*
X55265Y-33175D01*
X55265Y-33062D01*
X55284Y-33025D01*
X55302Y-33006D01*
X55340Y-32987D01*
X55396Y-32987D01*
X55434Y-33006D01*
X55452Y-33025D01*
X55471Y-33062D01*
X55471Y-33175D01*
X55452Y-33212D01*
X55434Y-33231D01*
X55396Y-33250D01*
X55340Y-33250D01*
X55602Y-32987D02*
X55677Y-33250D01*
X55752Y-33062D01*
X55827Y-33250D01*
X55902Y-32987D01*
X56202Y-33231D02*
X56165Y-33250D01*
X56090Y-33250D01*
X56052Y-33231D01*
X56034Y-33194D01*
X56034Y-33044D01*
X56052Y-33006D01*
X56090Y-32987D01*
X56165Y-32987D01*
X56202Y-33006D01*
X56221Y-33044D01*
X56221Y-33081D01*
X56034Y-33119D01*
X56390Y-33250D02*
X56390Y-32987D01*
X56390Y-33062D02*
X56409Y-33025D01*
X56427Y-33006D01*
X56465Y-32987D01*
X56502Y-32987D01*
M02*
